<?xml version="1.0" standalone="no"?>
<!DOCTYPE svg PUBLIC "-//W3C//DTD SVG 1.1//EN" "http://www.w3.org/Graphics/SVG/1.1/DTD/svg11.dtd" >
<svg xmlns="http://www.w3.org/2000/svg" xmlns:xlink="http://www.w3.org/1999/xlink" version="1.1">
<metadata>
Created by FontForge 20170910 at Mon Apr 18 23:24:15 2005
 By Jimmy Wärting
(c) 1998 Ray Larabie. This font is freeware. Read attached text file for details. Info &#38; updates visit www.larabiefonts.com. Donations gratefully accepted at www.larabiefonts.com/donation.html. Also visit my commercial type foundry at www.typodermic.com. This font was updated in 2004.
</metadata>
<defs>
<font id="DirtyBakersDozen" horiz-adv-x="752" >
  <font-face 
    font-family="DirtyBakersDozen"
    font-weight="400"
    font-stretch="normal"
    units-per-em="1000"
    panose-1="0 0 4 0 0 0 0 0 0 0"
    ascent="800"
    descent="-200"
    x-height="613"
    cap-height="619"
    bbox="-16 -207 1552 793"
    underline-thickness="20"
    underline-position="-143"
    unicode-range="U+0020-2122"
  />
<missing-glyph horiz-adv-x="420" 
 />
    <glyph glyph-name=".notdef" horiz-adv-x="420" 
 />
    <glyph glyph-name=".null" horiz-adv-x="0" 
 />
    <glyph glyph-name="nonmarkingreturn" horiz-adv-x="420" 
 />
    <glyph glyph-name="space" unicode=" " horiz-adv-x="420" 
 />
    <glyph glyph-name="space" unicode="&#xa0;" horiz-adv-x="420" 
 />
    <glyph glyph-name="quotesingle" unicode="'" horiz-adv-x="231" 
d="M171 605q0 -47 -22 -88q-25 -45 -67 -59q-2 6 -5 47q-2 31 -10 43q-13 17 -26 33q-18 25 -18 34q0 21 16.5 52.5t34.5 33.5q6 1 15 1q40 0 61 -27.5t21 -69.5z" />
    <glyph glyph-name="parenleft" unicode="(" horiz-adv-x="347" 
d="M302 -12q-23 -3 -45 -3q-116 0 -180 103q-54 88 -54 212q0 112 46 198q57 106 160 106q31 0 65 -11q-8 -17 -66 -90q-45 -56 -45 -94v-195q0 -14 13 -57q17 -55 36 -77q10 -11 67 -55q3 -8 3 -37z" />
    <glyph glyph-name="parenright" unicode=")" horiz-adv-x="298" 
d="M281 300q0 -124 -54 -212q-65 -103 -181 -103q-22 0 -44 3q0 29 3 37q33 26 75 64q11 17 27 68q15 46 15 57v195q0 36 -46 93q-58 74 -66 91q33 11 65 11q104 0 160 -105q46 -86 46 -199z" />
    <glyph glyph-name="asterisk" unicode="*" horiz-adv-x="597" 
d="M576 427q0 -7 -8 -16q-23 -26 -64 -68l-68 -49l44 -172q1 -3 1 -7q0 -16 -15 -16q-6 0 -12 4l-153 90q-28 -24 -149 -96q-6 -3 -13 -3q-16 0 -16 15q0 3 1 8l39 172q-38 26 -137 112q-9 8 -9 17q0 14 19 16l176 17q6 32 18 76q18 35 47 88q8 14 17 14q10 0 17 -13
l70 -153l176 -20q19 -2 19 -16z" />
    <glyph glyph-name="plus" unicode="+" horiz-adv-x="428" 
d="M423 362q0 -36 -31 -45q-13 -4 -61 -4q-40 0 -52 -17q-2 -3 -20 -62q-12 -40 -42 -40q-31 0 -39 32q-4 29 -9 59.5t-30 31.5q-53 2 -73 8q-43 13 -43 49t26 47q13 6 53 8q36 1 47 10q9 6 25 62q14 48 45 48q32 0 43 -25q3 -7 10 -49q5 -30 21 -37.5t54.5 -12.5t52.5 -14
q23 -14 23 -49z" />
    <glyph glyph-name="comma" unicode="," horiz-adv-x="239" 
d="M176 38q0 -47 -23 -88q-25 -45 -67 -58q-1 7 -4 46q-2 31 -11 43q-13 17 -25 33q-19 25 -19 34q0 21 16.5 52.5t34.5 33.5q7 1 15 1q83 0 83 -97z" />
    <glyph glyph-name="hyphen" unicode="-" horiz-adv-x="411" 
d="M393 362q0 -43 -171 -43q-23 0 -71 -1t-72 -1q-37 0 -37 38q0 81 127 81q20 0 59.5 -3t59.5 -3q105 0 105 -68z" />
    <glyph glyph-name="period" unicode="." horiz-adv-x="259" 
d="M194 64q0 -31 -22.5 -52t-53.5 -21t-53.5 21t-22.5 52t22.5 52t53.5 21t53.5 -21t22.5 -52z" />
    <glyph glyph-name="slash" unicode="/" horiz-adv-x="505" 
d="M529 697q0 -35 -47 -91q-14 -18 -47 -57q-9 -9 -23 -27q-22 -34 -82 -152q-45 -90 -91 -150q-19 -25 -46 -73q-33 -55 -45 -74q-22 -33 -53 -57q-37 -29 -70 -29q-30 0 -30 26q0 24 21 56q13 18 38 53q28 42 79 136q48 90 79 134q49 66 138 202q74 128 130 128
q12 0 30.5 -8t18.5 -17z" />
    <glyph glyph-name="zero" unicode="0" horiz-adv-x="610" 
d="M593 284q0 -105 -52 -182q-57 -82 -156 -104q-13 16 -13 60q0 28 9 93q9 69 9 79v3l-30 354q108 -19 173 -107q60 -83 60 -196zM269 9q-20 -18 -46 -18q-63 0 -135 90q-68 86 -68 152v139q0 3 5 20q19 62 68 125q64 81 123 81q45 0 45 -53q0 -23 -11 -83
q-19 -105 -19 -113v-105q0 5 13 -72q12 -70 25 -163z" />
    <glyph glyph-name="one" unicode="1" horiz-adv-x="377" 
d="M320 4h-293q-3 9 -3 19q0 22 32 70t32 75v241q0 9 -22 54q-24 49 -27 66q70 46 81 52q53 30 87 30q35 0 47 -34q4 -13 4 -18v-404q0 -18 29 -70t33 -81z" />
    <glyph glyph-name="two" unicode="2" horiz-adv-x="582" 
d="M219 553q0 -27 -15.5 -70t-32 -66.5t-57.5 -23.5q-99 0 -99 65q0 8 6 51q5 38 146 93q52 -20 52 -49zM545 412q0 -26 -15 -45q-31 -39 -81 -60q-15 -6 -97 -32q-57 -17 -92 -43q37 -74 127 -74q64 0 135 37v-11q1 -88 -33 -139q-40 -61 -124 -61q-38 0 -107.5 24.5
t-107.5 24.5q-68 0 -131 -27q-2 16 -2 33q0 75 37 146q44 85 103 112q30 10 88 31t85 77q15 30 15 57q0 18 -10 52t-10 51q0 10 2 20q17 14 40 14q58 0 118 -64t60 -123z" />
    <glyph glyph-name="three" unicode="3" horiz-adv-x="615" 
d="M576 167q0 -57 -53.5 -111.5t-110.5 -54.5q-28 0 -47 18v128q0 54 -45.5 95t-100.5 41q-11 0 -21 -1q-8 13 -8 36q0 20 8 36q47 0 94 14q73 22 73 68v137q15 40 55 40q51 0 99 -49.5t48 -100.5q0 -31 -32 -71q-51 -63 -52 -64q6 -13 55 -77q38 -49 38 -84zM251 588
q0 -55 -33 -114q-38 -68 -88 -68q-27 0 -58 29.5t-31 55.5q0 38 51 82q47 40 86 46q9 1 20 1q9 0 25 -1t23 -1q5 -11 5 -30zM255 13q0 -11 -13.5 -19t-25.5 -8q-65 0 -127 29q-75 37 -75 94q0 47 25.5 76t71.5 29q70 0 110 -68q34 -58 34 -133z" />
    <glyph glyph-name="four" unicode="4" horiz-adv-x="578" 
d="M534 248q-5 -26 -31.5 -60.5t-32.5 -57.5q3 -19 16 -48q17 -38 20 -47q-12 -12 -37 -24t-40 -12h-2l-184 12q-3 12 -3 25q0 28 22 77t22 72v350q13 34 46 57.5t70 23.5q55 0 55 -48q0 -2 -1 -7t-1 -7v-202q0 -20 20 -40q39 -36 61 -64zM185 417q0 -17 -13 -49.5
t-13 -46.5q0 -11 10.5 -44.5t10.5 -53.5q0 -17 -4 -33h-143q-27 15 -27 43q0 44 66 119q7 7 101 102q12 -17 12 -37z" />
    <glyph glyph-name="five" unicode="5" horiz-adv-x="579" 
d="M504 606q-15 -50 -76 -94t-113 -44q-58 0 -72 63q6 12 22 31q165 59 183 59q26 0 56 -15zM568 224q0 -67 -40 -130q-45 -71 -109 -71q-27 0 -52 17v139q0 51 -41.5 95.5t-94.5 44.5q-64 0 -108 -74q53 -32 77 -71q21 -33 35 -97q11 -56 26 -80h-33q-215 0 -215 90
q0 56 75 147q-2 8 -22 32q-16 21 -16 32v265q28 30 53 30q32 0 53 -52v-77q0 -39 38 -75q53 -1 157 -4q217 -8 217 -161z" />
    <glyph glyph-name="six" unicode="6" horiz-adv-x="632" 
d="M564 522q0 -33 -38 -58q-34 -24 -69 -24q-24 0 -38 13q-56 49 -56 118q0 22 11 42q27 14 57 14q38 0 84 -33q49 -36 49 -72zM590 169q0 -52 -64 -105.5t-118 -53.5q-46 0 -46 41q0 25 14 72t14 71q0 15 -5 26q-22 56 -36 130q22 36 64 36q55 0 112 -49q65 -56 65 -104
v-64zM261 30q-15 -10 -34 -10q-61 0 -135 81.5t-74 143.5v146q0 58 73.5 148t128.5 88l6 -1q35 -17 35 -50q0 -17 -10.5 -49.5t-10.5 -49.5v-254l7 -64z" />
    <glyph glyph-name="seven" unicode="7" horiz-adv-x="582" 
d="M338 558q-25 -59 -98 -59h-25q-17 1 -25 1q-20 0 -33 -4t-48.5 -40t-53.5 -36q-29 0 -52 63v97q0 3 3 10q11 24 52 24q14 0 43.5 -3.5t44.5 -3.5q19 0 55.5 10t55.5 10q36 0 53 -16t28 -53zM547 571q0 -45 -29 -88q-18 -26 -65.5 -71.5t-64.5 -69.5q-8 -12 -27 -53.5
t-19 -49.5v-62q0 1 3 -18q8 -42 8 -57q0 -52 -34.5 -78.5t-88.5 -26.5q-55 0 -88 42q-31 38 -31 94q0 80 55 159q36 53 136 104q55 28 112 110q30 45 80 107q19 -4 38 -7q15 -4 15 -35z" />
    <glyph glyph-name="eight" unicode="8" horiz-adv-x="657" 
d="M584 519q0 -10 -30.5 -47.5t-38.5 -37.5q-14 0 -19 20q0 2 -3 31q-1 8 -4 24v3q-1 1 -78 61q-33 27 -33 41q0 13 23 13q28 0 114 -22q69 -18 69 -86zM636 197q0 -19 -3 -39q-10 -50 -69 -102.5t-109 -52.5q-10 0 -18 2q-21 20 -29 67q-6 36 -12 73q-15 49 -54 73
q-1 1 -28 13l-66 33q-197 95 -197 218q0 22 7 45q9 36 69 71q56 33 96 33q11 0 18 -3q11 -16 32 -87q16 -55 53 -82q7 -5 106 -47q92 -38 138 -78q66 -58 66 -137zM297 33l-23 -22q-6 -1 -13 -1q-56 0 -138 64q-33 26 -45 49t-12 63q0 26 12 38q60 63 69 63q21 0 25 -25v-40
q0 -52 22 -80q25 -31 103 -109z" />
    <glyph glyph-name="nine" unicode="9" horiz-adv-x="595" 
d="M575 313q0 -105 -52 -188q-56 -90 -153 -115q-12 19 -12 45q0 23 12 68.5t12 68.5q0 30 -23 55t-53 25q-19 0 -65.5 -13.5t-69.5 -13.5t-88 47t-65 73v104q0 53 80 100q71 43 129 43q7 0 12 -1v-10q0 -29 -13.5 -86.5t-13.5 -86.5q0 -75 95 -88q33 27 49 78l-9 183
q108 -12 170 -97q58 -79 58 -191zM250 23q-14 -19 -61 -19q-49 0 -93 20q-55 26 -55 70q0 42 39 72q37 27 79 27q65 0 85 -59q6 -17 6 -23v-88z" />
    <glyph glyph-name="colon" unicode=":" horiz-adv-x="239" 
d="M199 351q0 -31 -21.5 -52.5t-53.5 -21.5q-31 0 -53 21.5t-22 52.5t22 52t53 21t53 -21t22 -52zM192 64q0 -31 -22 -52t-54 -21q-31 0 -53 21t-22 52t22 52t53 21q32 0 54 -21t22 -52z" />
    <glyph glyph-name="semicolon" unicode=";" horiz-adv-x="237" 
d="M196 351q0 -31 -22 -52.5t-53 -21.5q-32 0 -54 21.5t-22 52.5t22.5 52t53.5 21t53 -21t22 -52zM189 43q0 -46 -23 -87q-25 -46 -66 -59q-3 9 -5 46q-2 32 -10 43q-13 17 -26 33q-18 24 -18 34q0 21 16.5 52.5t34.5 33.5q6 1 14 1q41 0 62 -27.5t21 -69.5z" />
    <glyph glyph-name="equal" unicode="=" horiz-adv-x="406" 
d="M393 398q0 -43 -171 -43q-23 0 -71 -1t-72 -1q-37 0 -37 38q0 81 127 81q20 0 59.5 -3t59.5 -3q105 0 105 -68zM388 283q0 -29 -35 -47q-28 -15 -61 -15h-215q-17 0 -26 29q-8 21 -8 41q0 28 105 28q23 0 69.5 -2t69.5 -2q11 0 32 2t31 2q38 0 38 -36z" />
    <glyph glyph-name="question" unicode="?" horiz-adv-x="465" 
d="M164 549q0 -139 -93 -139q-27 0 -46 14.5t-19 39.5q0 44 36.5 76.5t79.5 32.5q42 0 42 -24zM441 450q0 -49 -34 -77q-38 -23 -76 -45q-10 -7 -22 -21q-18 -22 -19 -25t-1 -8q0 -8 2 -22t2 -22q0 -39 -51 -82q3 -10 18 -45q12 -28 12 -46q0 -31 -26 -58q-89 26 -89 57
q0 11 21.5 41t21.5 47q0 6 -2 12q-36 11 -58 68q-18 47 -18 93t19 65q7 6 60 33q41 21 56 39q9 12 9 117q66 -1 115 -27q60 -34 60 -94z" />
    <glyph glyph-name="A" unicode="A" 
d="M712 85q0 -26 -23 -43.5t-50 -18.5l-247 -10q-21 21 -21 46l1 3q50 85 50 118q0 8 -16 40.5t-16 63.5v63q36 106 77 226q41 -28 73 -99q19 -41 46 -129q13 -45 39 -113l21 -30q19 -29 56 -86q10 -16 10 -31zM367 614q-10 -86 -26 -147q-2 -9 -21 -58q-16 -43 -16 -51
v-152q-15 -12 -31 -24q-18 -15 -18 -34q0 -16 18 -50.5t18 -58.5q0 -47 -67 -47h-189q-16 0 -25.5 17t-9.5 34q0 4 1 8q9 13 37 41q25 25 35 43q32 59 71 166l26 73q18 46 51 141q29 86 84 98q13 3 30 3q15 0 32 -2z" />
    <glyph glyph-name="B" unicode="B" horiz-adv-x="780" 
d="M739 157q0 -59 -53 -106.5t-113 -47.5h-149q-39 17 -39 37q0 16 51 68t51 92q0 30 -48 66.5t-51 59.5q4 11 54 55q47 39 47 71q0 23 -45 62t-45 60q0 9 3 19q29 22 89 22q72 0 134 -32q70 -35 98 -96q4 -10 4 -22q0 -42 -72 -130q2 -33 43 -88t41 -90zM314 537l-11 -455
q0 -21 -19.5 -50t-39.5 -29h-168q-4 0 -11 2q-42 12 -42 37q0 16 29 61.5t29 64.5v287q0 24 -9 35q-33 44 -33 77q0 13 3 26q32 34 78 34h92q77 0 97 -63q5 -18 5 -27z" />
    <glyph glyph-name="C" unicode="C" horiz-adv-x="687" 
d="M640 445q0 -4 -7 -23q-20 -54 -61 -54q-48 0 -99.5 71t-51.5 132q0 8 1 16q24 1 77 12q50 11 77 11q46 0 59 -30q5 -11 5 -18v-117zM609 214q0 -56 -28 -110q-26 -47 -63 -68q-6 -2 -18 -8q-39 -20 -71 -20q-15 0 -18 1q-11 3 -19 26q-7 19 -7 34q0 10 5 19q23 50 47 100
q32 60 68 82q31 19 54 19q50 0 50 -75zM325 551q0 -50 -23 -79q-14 -19 -19 -34q-11 -33 -11 -129q0 -44 9 -105q10 -66 10 -75v-120q-14 -10 -34 -10q-68 0 -155 84t-87 152v137q0 3 8 23q27 78 99 145q82 76 151 76q29 0 44 -11q8 -6 8 -54z" />
    <glyph glyph-name="D" unicode="D" horiz-adv-x="759" 
d="M737 323q0 -126 -64 -215q-72 -99 -193 -99q-48 0 -100 16q-7 18 -7 34q0 26 29 49q39 33 44 40q22 33 42 110l4 16v82q0 8 -8.5 50.5t-11.5 50.5q-6 16 -26 31q-29 21 -32 24q-41 43 -41 55t18 34q55 17 104 17q116 0 183 -92q59 -82 59 -203zM291 91q0 -23 -18 -54
q-21 -34 -42 -34h-159q-3 3 -31 15q-17 7 -17 30q0 25 27.5 80.5t27.5 82.5v251q0 8 -13 27q-16 22 -19 30q-5 15 -9 97h218l35 -35v-490z" />
    <glyph glyph-name="E" unicode="E" horiz-adv-x="782" 
d="M730 398q-16 -17 -47.5 -28t-57.5 -11q-28 0 -44 24q-8 12 -21 50q-12 35 -23 48q-20 23 -73 43q-67 24 -81 32q16 61 51 61l261 -1l35 -35v-183zM476 359q0 -56 -3 -75q-10 -48 -44 -48q-24 0 -44.5 26t-20.5 51q0 27 27 66t52 39q33 0 33 -59zM719 49q0 -18 -34 -46
h-277q-16 0 -25.5 17t-9.5 34q0 4 1 8q14 25 34 31q11 3 46.5 3t60.5 28q16 17 37 61.5t33 59.5h134v-196zM293 616q-5 -29 -5 -109v-459q-13 -17 -49 -45h-182q-27 15 -27 41q0 22 27.5 71t27.5 63v194q0 75 -5 100q-2 11 -21 43q-18 28 -18 60q0 27 36 38q8 2 10 3h206z
" />
    <glyph glyph-name="F" unicode="F" horiz-adv-x="712" 
d="M692 440q-27 -38 -87 -38q-39 0 -56 16q-8 7 -33.5 47.5t-42.5 52.5q-10 9 -44 16t-40 11q-23 16 -24 35q19 33 65 52q12 5 14 5h248v-197zM449 270q-24 -23 -45 -23q-44 0 -44 77q0 81 54 102q13 -12 35 -35v-121zM331 58q0 -36 -38 -48q-23 -7 -104 -7h-158
q-29 13 -29 37q0 20 28.5 66t28.5 62q0 94 1.5 120.5t7.5 131.5q1 9 -25.5 74t-26.5 86q0 11 6 15q24 2 83 18q53 13 84 13q62 0 86 -51q6 -13 6 -16l-11 -339q61 -115 61 -162z" />
    <glyph glyph-name="G" unicode="G" horiz-adv-x="782" 
d="M728 520q0 -70 -6 -96q-15 -57 -64 -57q-25 0 -59 9q-38 10 -53.5 22.5t-26.5 37.5q-14 34 -19 40q-18 15 -35 31q-20 20 -20 39q0 13 14.5 29.5t26.5 16.5q16 0 45 -9.5t44 -9.5q16 0 46.5 6t46.5 6q34 0 47 -15t13 -50zM768 270q-4 -20 -23 -55.5t-24 -54.5t-14 -109
q-1 -10 -3.5 -26.5t-50.5 -17.5q-65 0 -196 -6q-20 18 -20 41q0 21 22.5 64.5t22.5 61.5q0 19 -12.5 55t-12.5 56v3q17 12 52 20q56 14 55 14h98q41 -13 57 -20q35 -14 49 -26zM352 559q0 -25 -17 -63q-13 -30 -27 -60q-5 -15 -12 -60q0 -3 -6 -35q-6 -28 -6 -31v-63
q0 -23 40 -122q23 -58 23 -79q0 -32 -35 -55q-132 1 -215 88t-83 220q0 130 79 215t208 85q20 0 41 -2q10 -17 10 -38z" />
    <glyph glyph-name="H" unicode="H" horiz-adv-x="834" 
d="M780 562q0 -23 -26 -71.5t-26 -51.5q0 -44 -5 -133t-5 -133q0 -24 26 -72.5t26 -67.5q0 -24 -24 -45h-270l-35 27v4q-1 33 32.5 94.5t33.5 90.5q0 32 -18 57q-10 14 -34 34q-20 16 -23 24q-4 12 -4 23q0 20 40.5 46t40.5 55q0 45 -36 45q-4 0 -10 -1h-9q-22 0 -22 21
q0 18 44 93h248q56 0 56 -39zM367 352q0 -15 -2 -30q-1 -11 -39.5 -58.5t-38.5 -84.5q0 -43 29 -70.5t29 -55.5q0 -14 -4 -35l-37 -18h-272q-8 52 -8 63q0 22 17 37q27 23 28 25q17 25 17 169q0 47 -1 102l-2 49q0 3 0 2q0 16 -25.5 56.5t-25.5 58.5q0 16 19 33t35 17h213
q31 0 55 -35q0 -52 -12 -69q-1 -2 -23 -15q-13 -9 -13 -34q0 -8 2 -23q5 -38 20 -47q13 -2 26 -5.5t13 -31.5z" />
    <glyph glyph-name="I" unicode="I" horiz-adv-x="423" 
d="M359 46q0 -25 -36 -38q-13 -4 -15 -4h-225q-4 0 -10 2q-36 11 -36 34q0 16 21 49t21 40v315q0 9 -22 59q-24 54 -28 70q7 15 9 18q6 8 16 12q44 16 133 16h155q3 -10 3 -21q0 -36 -43 -119v-321q0 -12 28.5 -53.5t28.5 -58.5z" />
    <glyph glyph-name="J" unicode="J" horiz-adv-x="586" 
d="M541 550q0 -18 -20.5 -57t-20.5 -50v-289q0 -48 -53.5 -102.5t-103.5 -54.5q-65 0 -65 95v337q0 12 -31.5 61t-31.5 72q0 29 35 44h149q142 0 142 -56zM211 59q0 -58 -51 -58q-16 0 -37 7q-109 39 -109 130q0 36 32 66.5t68 30.5q64 0 85 -61q12 -35 12 -115z" />
    <glyph glyph-name="K" unicode="K" horiz-adv-x="785" 
d="M743 55q0 -27 -18 -49h-268q-36 0 -36 71q0 9 1 27t1 26q0 26 -5 38q-20 41 -39 82q-22 50 -22 86q0 31 32 87t32 77q0 13 -4.5 36.5t-4.5 35.5q0 23 21 36q17 12 41 12h235q14 -19 14 -35q0 -28 -46 -63q-42 -31 -84 -63q-46 -39 -46 -79t51 -105q47 -56 95 -112
q50 -65 50 -108zM331 577q0 -20 -23.5 -57.5t-23.5 -40.5v-321q0 -15 19 -46t19 -46q0 -29 -42 -60h-213q-15 0 -27 11q-1 2 -18 23l-1 5q0 18 15 58q20 54 22 59q5 18 5 46q0 8 -1 24t-1 24v220q0 10 -20.5 51.5t-20.5 91.5h259q2 0 12 -3q40 -11 40 -39z" />
    <glyph glyph-name="L" unicode="L" horiz-adv-x="671" 
d="M641 70q0 -18 -14.5 -38.5t-32.5 -28.5h-183q-10 11 -21.5 31.5t-11.5 33.5q0 7 18 25q12 11 24 23q29 31 37 52q3 7 11 45q7 27 18 42q18 22 61 22q40 0 71 -15q23 -37 23 -64v-128zM355 595q0 -13 -31.5 -56t-31.5 -64v-394q0 -17 -21.5 -47.5t-38.5 -30.5h-114
q-98 0 -98 48q0 22 24.5 66t24.5 51v294q0 23 -27 67t-27 58q0 24 45 37q11 3 14 3h168q113 0 113 -32z" />
    <glyph glyph-name="M" unicode="M" horiz-adv-x="1045" 
d="M996 40q0 -22 -15 -41h-247q-5 1 -11 3q-30 11 -30 38q0 12 19 78q18 63 18 114q0 4 -14 96q-17 -4 -40 -21q-26 -19 -38 -23q-20 23 -31 80q-9 46 -9 88q0 62 18 104q24 57 78 57h245q5 -1 11 -3q41 -13 41 -45q0 -20 -25 -63.5t-25 -51.5v-289q0 -8 27.5 -52t27.5 -69z
M592 71q0 -62 -61 -62q-49 0 -85 58q-15 25 -56 131q-37 94 -71 140q-2 1 -4 1q-12 0 -21 -12.5t-9 -25.5v-140q0 -7 26 -45t26 -60q0 -30 -35 -57h-162q-54 23 -54 54q0 17 25.5 52t25.5 49v293q0 17 -27 62t-27 64q0 24 26 40h266q73 0 125 -227q1 -8 17 -53q7 -19 35 -97
q40 -114 40 -165z" />
    <glyph glyph-name="N" unicode="N" horiz-adv-x="827" 
d="M782 593q0 -18 -24 -58.5t-24 -49.5q0 -97 -1.5 -106t-7.5 -49l-16 -116q-50 43 -83 115q-22 46 -47 137q-28 98 -43 136q16 12 45 21q33 10 51 14h97q3 0 16 -4q37 -13 37 -40zM666 49q-46 -45 -92 -45q-51 0 -108 60q-37 37 -94.5 124.5t-78.5 110.5q-9 -1 -36 -29
v-116q0 -7 22.5 -42.5t22.5 -54.5q0 -33 -48 -55h-106q-110 0 -110 33q0 11 24.5 51.5t24.5 60.5v304q0 19 -34.5 69t-34.5 65q0 31 77 31h200q25 0 66 -16q87 -126 175 -285q92 -166 130 -266z" />
    <glyph glyph-name="O" unicode="O" horiz-adv-x="737" 
d="M718 295q0 -124 -61 -208q-69 -93 -189 -93q-11 0 -22 1q-20 9 -20 44q0 33 20 99q27 92 27 228l-5 20q-34 119 -33 193l1 14q26 5 51 5q111 0 176 -99q55 -86 55 -204zM338 51q0 -20 -18 -45q-13 -7 -31 -7q-73 0 -168 86q-103 93 -103 166v149q0 6 6 25q21 67 89 125
q82 68 160 68q33 0 58 -15q2 -13 2 -25q0 -41 -30 -117.5t-30 -113.5v-80q0 -1 4 -22q13 -67 37 -125t24 -69z" />
    <glyph glyph-name="P" unicode="P" horiz-adv-x="716" 
d="M700 443q0 -60 -31 -107q-33 -50 -89 -66q-15 -4 -18 -4h-137q-14 0 -32 23q-16 20 -20 36q4 17 44 60q36 39 36 59q0 8 -6 16q-8 13 -41 42q-40 34 -48 42q-1 4 -1 10q0 29 23 52h171q66 0 109 -49q40 -47 40 -114zM352 48q0 -7 -4.5 -22t-4.5 -23h-281q-3 0 -15 3
q-38 11 -38 43q0 23 25 71t25 58v262q0 4 -22 50t-22 74t15 52h170q18 0 40.5 -15t29.5 -31v-299q0 -79 31 -135l28 -46q23 -38 23 -42z" />
    <glyph glyph-name="Q" unicode="Q" horiz-adv-x="822" 
d="M764 89q1 -122 -117 -122q-50 0 -114 23q-60 22 -103 54q4 22 28 87q23 61 23 75v210q-1 1 -35 97q-22 61 -27 96q26 24 71 24q88 0 171.5 -70.5t83.5 -166.5v-86q0 -33 -26 -95t-26 -81q0 -39 71 -41v-4zM323 593q0 -36 -22 -97.5t-22 -67.5v-222q43 -83 43 -133
q0 -62 -62 -62q-73 0 -156 73q-90 78 -90 165v134q0 79 106 163q96 77 183 77q8 0 17 -1q3 -13 3 -29z" />
    <glyph glyph-name="R" unicode="R" horiz-adv-x="850" 
d="M801 92q-3 -54 -44 -85q-38 -27 -95 -27q-105 0 -149 74q-11 18 -21 67q-4 25 -18 72q-10 23 -54 62q-36 31 -36 68q0 11 1 23q59 32 70 41q38 29 38 67q0 29 -55 67t-55 67q0 6 1 13l116 8q57 4 88 4t93.5 -52.5t62.5 -113.5q0 -38 -37 -72l-47 -44q12 -43 37 -124
q26 -75 104 -115zM349 21q0 -6 -1 -11h-270q-3 0 -16 4q-41 14 -41 42q0 19 27.5 60t27.5 48v283q0 11 -29 59t-29 72q0 28 30 45h204l45 -34v-406q16 -41 32 -81q20 -53 20 -81z" />
    <glyph glyph-name="S" unicode="S" horiz-adv-x="708" 
d="M633 526q0 -19 -5 -27q-20 -36 -62 -36q-35 0 -93 39q-35 25 -93 60v38q86 -3 97 -3q32 0 64 5q3 0 17 4q11 2 15 2q30 0 46 -27q14 -23 14 -55zM666 193q0 -65 -54 -121q-44 -44 -96 -58q-9 -2 -25 -5q-21 -5 -24 -5q-26 0 -38 59q-15 75 -22 85q-33 49 -78 61
q-50 10 -149 33q-93 25 -148 108q-16 25 -16 59q0 73 65.5 139t139.5 66q39 0 49 -67q8 -54 12 -65q11 -34 41 -48t110 -29q91 -17 117 -28q59 -23 89 -77q27 -49 27 -107zM303 11q-22 1 -46 1q-90 0 -203 -11q-24 23 -24 83q0 31 11 54q14 30 42 30q37 0 123.5 -60.5
t96.5 -96.5z" />
    <glyph glyph-name="T" unicode="T" horiz-adv-x="763" 
d="M734 555q0 -4 -1.5 -11.5t-1.5 -10.5q0 -69 -1 -77q-6 -37 -34 -65h-111q-19 25 -31 76q-10 44 -10 82q0 42 11 52q27 24 92 24q87 0 87 -70zM544 41q0 -25 -47 -38q-11 -3 -15 -4h-234q-51 25 -51 54q0 17 29 55.5t29 55.5v402q22 53 101 53q40 0 71 -15q39 -18 39 -38
l11 -372q1 -32 34 -85.5t33 -67.5zM169 415q-29 -33 -80 -33q-37 0 -63 21t-26 58v104q0 27 32 43q25 12 54 12q55 0 83 -31v-174z" />
    <glyph glyph-name="U" unicode="U" horiz-adv-x="750" 
d="M707 564q0 -27 -20.5 -72.5t-20.5 -55.5v-255q0 -51 -71 -113t-128 -62q-12 0 -21 4q-23 10 -23 59q0 13 3 18q20 27 51 70t31 99v135q0 43 -38.5 108t-38.5 72q0 38 158 38h107q11 -21 11 -45zM337 58q0 -36 -34 -60h-10q-48 0 -124.5 47.5t-98.5 102.5q-7 16 -7 21v232
q0 50 -23 88.5t-23 59.5q0 27 16 70h237q3 0 15 -3q50 -11 50 -43q0 -21 -30 -68t-30 -59v-235q0 -15 31 -70.5t31 -82.5z" />
    <glyph glyph-name="V" unicode="V" horiz-adv-x="733" 
d="M695 556q0 -21 -29 -62q-37 -52 -41 -62q-21 -46 -51 -140t-50 -138q-69 35 -69 157q0 25 5 68q5 50 6 66l1 4q0 14 -15 57q-17 47 -17 89q22 24 56 24h181q23 -20 23 -63zM428 30q-20 -15 -60 -25q-36 -10 -64 -10q-33 0 -50 14q-27 22 -59 98q-21 57 -42 113
q-72 188 -152 341q6 26 45 39q29 9 63 9h192q26 -9 26 -42q0 -21 -10.5 -62t-10.5 -62q0 -33 71 -221q51 -135 51 -192z" />
    <glyph glyph-name="W" unicode="W" horiz-adv-x="1046" 
d="M1016 537q0 -26 -24 -53q-32 -36 -38 -48q-25 -55 -49 -143q-37 -132 -41 -145q-33 23 -56 60q-24 41 -24 78q0 25 13.5 70.5t13.5 68.5q0 14 -14 58t-14 66q0 35 24 53h172q19 0 29 -24q8 -19 8 -41zM769 28q0 -9 -1 -16q-44 -24 -75 -24q-37 0 -65 39q-10 13 -37 70
q-25 53 -49 78q-4 1 -9 1q-9 0 -27 -2.5t-27 -2.5q-13 11 -45 76v105q0 14 10.5 48t10.5 52q0 16 -12 41q-15 30 -17.5 40t-2.5 32q0 4 7 18t7 21q0 4 -1 7h182q38 0 65 -33v-6q1 -25 -12.5 -74t-13.5 -73q0 -37 64 -212q48 -130 48 -185zM411 0h-119q-46 0 -104 183
q-21 74 -66 221q-4 14 -45 86q-33 60 -45 98q30 35 98 35h82.5h81.5l45 -59l-28 -114z" />
    <glyph glyph-name="X" unicode="X" horiz-adv-x="755" 
d="M697 592q0 -22 -17 -44q-11 -13 -35 -32q-28 -20 -37 -30q-16 -17 -47 -49q-22 -22 -33 -22q-24 0 -50 53q-23 46 -23 91q0 37 18 57h216q8 -9 8 -24zM721 71q0 -41 -44 -68h-267q-29 13 -29 47q0 14 5 41.5t5 40.5q0 32 -19 52q-71 77 -129 144q-41 47 -127 138
q-14 14 -49 35t-49 35.5t-14 32.5q0 24 20 41.5t45 16.5h3l255 -11q26 -1 26 -49q0 -9 -1 -28t-1 -29q0 -57 24 -86q48 -57 169 -167q71 -64 116 -108q18 -17 51 -53q10 -12 10 -25zM288 70q0 -67 -67 -67h-118q-3 1 -53 12q-29 6 -36 35q4 22 28 44q23 17 67 53
q79 67 101 67q6 0 13 -5q27 -21 46 -62t19 -77z" />
    <glyph glyph-name="Y" unicode="Y" horiz-adv-x="739" 
d="M716 600q0 -70 -180 -193q-28 19 -49 72q-18 47 -18 86q0 77 65 77q6 0 17.5 -2.5t16.5 -2.5h128q20 -14 20 -37zM519 60q0 -12 -4 -24q-12 -11 -49 -20q-27 -7 -56 -14h-85q-14 0 -42 -7.5t-43 -7.5q-29 0 -46 29v3q0 12 17 38q23 33 26 39q17 38 17 85q0 78 -58 142
q-43 48 -62 68q-42 44 -66 63q-23 15 -63 47q-14 14 -14 35q0 39 45 70h202q11 0 33.5 1.5t33.5 1.5q28 0 50 -9q5 -9 5 -31q0 -13 -2 -38t-2 -38q0 -40 15 -64q7 -14 42 -53q45 -49 50 -71q4 -17 4 -41q0 -12 -2 -36t-2 -36q0 -63 52 -107q4 -13 4 -25z" />
    <glyph glyph-name="Z" unicode="Z" horiz-adv-x="743" 
d="M314 575q0 -8 -3.5 -12.5t-48.5 -26.5t-65 -43q-16 -16 -28 -51q-4 -17 -17 -47q-22 -13 -55 -13q-53 0 -66 34v161q17 36 59 36h212q12 -13 12 -38zM687 67q0 -47 -35 -72h-260q0 8 -4.5 25t-4.5 25v4q32 23 64 45q36 27 57 51q14 16 31 52.5t28 50.5q47 5 48 5
q76 0 76 -69v-117zM676 580q0 -41 -112 -170q-30 -34 -150 -161q-54 -57 -161 -172q-74 -78 -81 -78h-115q-2 0 -7 -1h-7q-28 0 -28 26q0 56 114 202q108 138 234 252q137 124 193 124h83q37 0 37 -22z" />
    <glyph glyph-name="asciicircum" unicode="^" horiz-adv-x="286" 
d="M231 614q0 -12 -17 -12q-11 0 -30 13t-30 13q-12 0 -30.5 -14t-29.5 -14q-15 0 -15 11q0 12 29 27t46 15t45 -12q32 -13 32 -27z" />
    <glyph glyph-name="underscore" unicode="_" horiz-adv-x="560" 
d="M589 -92q0 -29 -30 -29h-498q-29 0 -29 29v21q0 30 29 30h498q30 0 30 -30v-21z" />
    <glyph glyph-name="grave" unicode="`" horiz-adv-x="354" 
d="M266 569q0 -10 -22 -10q-30 0 -65 15q-30 14 -61 28.5t-31 23.5q0 13 30 13q13 0 90 -30q59 -24 59 -40z" />
    <glyph glyph-name="a" unicode="a" 
d="M712 85q0 -26 -23 -43.5t-50 -18.5l-247 -10q-21 21 -21 46l1 3q50 85 50 118q0 8 -16 40.5t-16 63.5v63q36 106 77 226q41 -28 73 -99q19 -41 46 -129q13 -45 39 -113l21 -30q19 -29 56 -86q10 -16 10 -31zM367 614q-10 -86 -26 -147q-2 -9 -21 -58q-16 -43 -16 -51
v-152q-16 -12 -31 -24q-18 -15 -18 -34q0 -16 18 -50.5t18 -58.5q0 -47 -67 -47h-189q-16 0 -25.5 17t-9.5 34q0 4 1 8q9 13 37 41q25 25 35 43q32 59 71 166l26 73q18 46 51 141q29 86 84 98q13 3 30 3q15 0 32 -2z" />
    <glyph glyph-name="b" unicode="b" horiz-adv-x="780" 
d="M739 157q0 -59 -53 -106.5t-113 -47.5h-149q-39 17 -39 37q0 16 51 68t51 92q0 30 -48 66.5t-51 59.5q4 11 54 55q47 39 47 71q0 23 -45 62t-45 60q0 9 3 19q29 22 89 22q72 0 134 -32q70 -35 98 -96q4 -10 4 -22q0 -42 -72 -130q2 -33 43 -88t41 -90zM314 537l-11 -455
q0 -21 -19.5 -50t-39.5 -29h-168q-4 0 -11 2q-42 12 -42 37q0 16 29 61.5t29 64.5v287q0 24 -9 35q-33 44 -33 77q0 13 3 26q32 34 78 34h92q77 0 97 -63q5 -18 5 -27z" />
    <glyph glyph-name="c" unicode="c" horiz-adv-x="687" 
d="M640 445q0 -4 -7 -23q-20 -54 -61 -54q-48 0 -99.5 71t-51.5 132q0 8 1 16q24 1 77 12q50 11 77 11q46 0 59 -30q5 -11 5 -18v-117zM609 214q0 -56 -28 -110q-26 -47 -63 -68q-6 -2 -18 -8q-39 -20 -71 -20q-15 0 -18 1q-11 3 -19 26q-7 19 -7 34q0 10 5 19q23 50 47 100
q32 60 68 82q31 19 54 19q50 0 50 -75zM325 551q0 -50 -23 -79q-14 -19 -19 -34q-11 -33 -11 -129q0 -44 9 -105q10 -66 10 -75v-120q-14 -10 -34 -10q-68 0 -155 84t-87 152v137q0 3 8 23q27 78 99 145q82 76 151 76q29 0 44 -11q8 -6 8 -54z" />
    <glyph glyph-name="d" unicode="d" horiz-adv-x="763" 
d="M737 323q0 -126 -64 -215q-72 -99 -193 -99q-48 0 -100 16q-7 18 -7 34q0 26 29 49q39 33 44 40q22 33 42 110l4 16v82q0 8 -8.5 50.5t-11.5 50.5q-6 16 -26 31q-29 21 -32 24q-41 43 -41 55t18 34q55 17 104 17q116 0 183 -92q59 -82 59 -203zM291 91q0 -23 -18 -54
q-21 -34 -42 -34h-159q-3 3 -31 15q-17 7 -17 30q0 25 27.5 80.5t27.5 82.5v251q0 8 -13 27q-16 22 -19 30q-5 15 -9 97h218l35 -35v-490z" />
    <glyph glyph-name="e" unicode="e" horiz-adv-x="782" 
d="M730 398q-16 -17 -47.5 -28t-57.5 -11q-28 0 -44 24q-8 12 -21 50q-12 35 -23 48q-20 23 -73 43q-67 24 -81 32q16 61 51 61l261 -1l35 -35v-183zM476 359q0 -56 -3 -75q-10 -48 -44 -48q-24 0 -44.5 26t-20.5 51q0 27 27 66t52 39q33 0 33 -59zM719 49q0 -18 -34 -46
h-277q-16 0 -25.5 17t-9.5 34q0 4 1 8q14 25 34 31q11 3 46.5 3t60.5 28q16 17 37 61.5t33 59.5h134v-196zM293 616q-5 -29 -5 -109v-459q-13 -17 -49 -45h-182q-27 15 -27 41q0 22 27.5 71t27.5 63v194q0 75 -5 100q-2 11 -21 43q-18 28 -18 60q0 27 36 38q8 2 10 3h206z
" />
    <glyph glyph-name="f" unicode="f" horiz-adv-x="712" 
d="M692 440q-27 -38 -87 -38q-39 0 -56 16q-8 7 -33.5 47.5t-42.5 52.5q-10 9 -44 16t-40 11q-23 16 -24 35q19 33 65 52q12 5 14 5h248v-197zM449 270q-24 -23 -45 -23q-44 0 -44 77q0 81 54 102q13 -12 35 -35v-121zM331 58q0 -36 -38 -48q-23 -7 -104 -7h-158
q-29 13 -29 37q0 20 28.5 66t28.5 62q0 94 1.5 120.5t7.5 131.5q1 9 -25.5 74t-26.5 86q0 11 6 15q24 2 83 18q53 13 84 13q62 0 86 -51q6 -13 6 -16l-11 -339q61 -115 61 -162z" />
    <glyph glyph-name="g" unicode="g" horiz-adv-x="782" 
d="M728 520q0 -70 -6 -96q-15 -57 -64 -57q-25 0 -59 9q-38 10 -53.5 22.5t-26.5 37.5q-14 34 -19 40q-18 15 -35 31q-20 20 -20 39q0 13 14.5 29.5t26.5 16.5q16 0 45 -9.5t44 -9.5q16 0 46.5 6t46.5 6q34 0 47 -15t13 -50zM768 270q-4 -20 -23 -55.5t-24 -54.5t-14 -109
q-1 -10 -3.5 -26.5t-50.5 -17.5q-65 0 -196 -6q-20 18 -20 41q0 21 22.5 64.5t22.5 61.5q0 19 -12.5 55t-12.5 56v3q17 12 52 20q56 14 55 14h98q41 -13 57 -20q35 -14 49 -26zM352 559q0 -25 -17 -63q-13 -30 -27 -60q-5 -15 -12 -60q0 -3 -6 -35q-6 -28 -6 -31v-63
q0 -23 40 -122q23 -58 23 -79q0 -32 -35 -55q-132 1 -215 88t-83 220q0 130 79 215t208 85q20 0 41 -2q10 -17 10 -38z" />
    <glyph glyph-name="h" unicode="h" horiz-adv-x="834" 
d="M780 562q0 -23 -26 -71.5t-26 -51.5q0 -44 -5 -133t-5 -133q0 -24 26 -72.5t26 -67.5q0 -24 -24 -45h-270l-35 27v4q-1 33 32.5 94.5t33.5 90.5q0 32 -18 57q-10 14 -34 34q-20 16 -23 24q-4 12 -4 23q0 20 40.5 46t40.5 55q0 45 -36 45q-4 0 -10 -1h-9q-22 0 -22 21
q0 18 44 93h248q56 0 56 -39zM367 352q0 -15 -2 -30q-1 -11 -39.5 -58.5t-38.5 -84.5q0 -43 29 -70.5t29 -55.5q0 -14 -4 -35l-37 -18h-272q-8 52 -8 63q0 22 17 37q27 23 28 25q17 25 17 169q0 47 -1 102l-2 49q0 3 0 2q0 16 -25.5 56.5t-25.5 58.5q0 16 19 33t35 17h213
q31 0 55 -35q0 -52 -12 -69q-1 -2 -23 -15q-13 -9 -13 -34q0 -8 2 -23q5 -38 20 -47q13 -2 26 -5.5t13 -31.5z" />
    <glyph glyph-name="i" unicode="i" horiz-adv-x="423" 
d="M359 46q0 -25 -36 -38q-13 -4 -15 -4h-225q-4 0 -10 2q-36 11 -36 34q0 16 21 49t21 40v315q0 9 -22 59q-24 54 -28 70q7 15 9 18q6 8 16 12q44 16 133 16h155q3 -10 3 -21q0 -36 -43 -119v-321q0 -12 28.5 -53.5t28.5 -58.5z" />
    <glyph glyph-name="j" unicode="j" horiz-adv-x="586" 
d="M541 550q0 -18 -20.5 -57t-20.5 -50v-289q0 -48 -53.5 -102.5t-103.5 -54.5q-65 0 -65 95v337q0 12 -31.5 61t-31.5 72q0 28 35 44h149q142 0 142 -56zM211 59q0 -58 -51 -58q-16 0 -37 7q-109 39 -109 130q0 36 32 66.5t68 30.5q64 0 85 -61q12 -35 12 -115z" />
    <glyph glyph-name="k" unicode="k" horiz-adv-x="785" 
d="M743 55q0 -27 -18 -49h-268q-36 0 -36 71q0 9 1 27t1 26q0 26 -5 38q-20 41 -39 82q-22 50 -22 86q0 31 32 87t32 77q0 13 -4.5 36.5t-4.5 35.5q0 23 21 36q17 12 41 12h235q14 -19 14 -35q0 -28 -46 -63q-42 -31 -84 -63q-46 -39 -46 -79t51 -105q47 -56 95 -112
q50 -65 50 -108zM331 577q0 -20 -23.5 -57.5t-23.5 -40.5v-321q0 -15 19 -46t19 -46q0 -29 -42 -60h-213q-15 0 -27 11q-1 2 -18 23l-1 5q0 18 15 58q20 54 22 59q5 18 5 46q0 8 -1 24t-1 24v220q0 10 -20.5 51.5t-20.5 91.5h259q2 0 12 -3q40 -11 40 -39z" />
    <glyph glyph-name="l" unicode="l" horiz-adv-x="671" 
d="M641 70q0 -18 -14.5 -38.5t-32.5 -28.5h-183q-10 11 -21.5 31.5t-11.5 33.5q0 7 18 25q12 11 24 23q29 31 37 52q3 7 11 45q7 27 18 42q18 22 61 22q40 0 71 -15q23 -37 23 -64v-128zM355 595q0 -13 -31.5 -56t-31.5 -64v-394q0 -17 -21.5 -47.5t-38.5 -30.5h-114
q-98 0 -98 48q0 22 24.5 66t24.5 51v294q0 23 -27 67t-27 58q0 24 45 37q11 3 14 3h168q113 0 113 -32z" />
    <glyph glyph-name="m" unicode="m" horiz-adv-x="1045" 
d="M996 40q0 -22 -15 -41h-247q-5 1 -11 3q-30 11 -30 38q0 12 19 78q18 63 18 114q0 4 -14 96q-17 -4 -40 -21q-26 -19 -38 -23q-20 23 -31 80q-9 46 -9 88q0 62 18 104q24 57 78 57h245q5 -1 11 -3q41 -13 41 -45q0 -20 -25 -63.5t-25 -51.5v-289q0 -8 27.5 -52t27.5 -69z
M592 71q0 -62 -61 -62q-49 0 -85 58q-15 25 -56 131q-37 94 -71 140q-2 1 -4 1q-12 0 -21 -12.5t-9 -25.5v-140q0 -7 26 -45t26 -60q0 -30 -35 -57h-162q-54 23 -54 54q0 17 25.5 52t25.5 49v293q0 17 -27 62t-27 64q0 24 26 40h266q73 0 125 -227q1 -8 17 -53q7 -19 35 -97
q40 -114 40 -165z" />
    <glyph glyph-name="n" unicode="n" horiz-adv-x="827" 
d="M782 593q0 -18 -24 -58.5t-24 -49.5q0 -97 -1.5 -106t-7.5 -49l-16 -116q-50 43 -83 115q-22 46 -47 137q-28 98 -43 136q16 12 45 21q33 10 51 14h97q3 0 16 -4q37 -13 37 -40zM666 49q-46 -45 -92 -45q-51 0 -108 60q-37 37 -94.5 124.5t-78.5 110.5q-9 -1 -36 -29
v-116q0 -7 22.5 -42.5t22.5 -54.5q0 -33 -48 -55h-106q-110 0 -110 33q0 11 24.5 51.5t24.5 60.5v304q0 19 -34.5 69t-34.5 65q0 31 77 31h200q25 0 66 -16q87 -126 175 -285q92 -166 130 -266z" />
    <glyph glyph-name="o" unicode="o" horiz-adv-x="737" 
d="M718 295q0 -124 -61 -208q-69 -93 -189 -93q-11 0 -22 1q-20 9 -20 44q0 33 20 99q27 92 27 228l-5 20q-34 119 -33 193l1 14q26 5 51 5q111 0 176 -99q55 -86 55 -204zM338 51q0 -20 -18 -45q-13 -7 -31 -7q-73 0 -168 86q-103 93 -103 166v149q0 6 6 25q21 67 89 125
q81 68 160 68q33 0 58 -15q2 -13 2 -25q0 -41 -30 -117.5t-30 -113.5v-80q0 -1 4 -22q13 -67 37 -125t24 -69z" />
    <glyph glyph-name="p" unicode="p" horiz-adv-x="720" 
d="M700 443q0 -60 -31 -107q-33 -50 -89 -66q-15 -4 -18 -4h-137q-14 0 -32 23q-16 20 -20 36q4 17 44 60q36 39 36 59q0 8 -6 16q-8 13 -41 42q-40 34 -48 42q-1 4 -1 10q0 29 23 52h171q66 0 109 -49q40 -47 40 -114zM352 48q0 -7 -4.5 -22t-4.5 -23h-281q-3 0 -15 3
q-38 11 -38 43q0 23 25 71t25 58v262q0 4 -22 50t-22 74t15 52h170q18 0 40.5 -15t29.5 -31v-299q0 -79 31 -135l28 -46q23 -38 23 -42z" />
    <glyph glyph-name="q" unicode="q" horiz-adv-x="822" 
d="M764 89q1 -122 -117 -122q-50 0 -114 23q-60 22 -103 54q4 22 28 87q23 61 23 75v210q-1 1 -35 97q-22 61 -27 96q26 24 71 24q88 0 171.5 -70.5t83.5 -166.5v-86q0 -33 -26 -95t-26 -81q0 -39 71 -41v-4zM323 593q0 -36 -22 -97.5t-22 -67.5v-222q43 -83 43 -133
q0 -62 -62 -62q-73 0 -156 73q-90 78 -90 165v134q0 79 106 163q96 77 183 77q8 0 17 -1q3 -13 3 -29z" />
    <glyph glyph-name="r" unicode="r" horiz-adv-x="850" 
d="M801 92q-3 -54 -44 -85q-38 -27 -95 -27q-105 0 -149 74q-11 18 -21 67q-4 25 -18 72q-10 23 -54 62q-36 31 -36 68q0 11 1 23q59 32 70 41q38 29 38 67q0 29 -55 67t-55 67q0 6 1 13l116 8q57 4 88 4t93.5 -52.5t62.5 -113.5q0 -38 -37 -72l-47 -44q12 -43 37 -124
q26 -75 104 -115zM349 21q0 -6 -1 -11h-270q-3 0 -16 4q-41 14 -41 42q0 19 27.5 60t27.5 48v283q0 11 -29 59t-29 72q0 28 30 45h204l45 -34v-406q16 -41 32 -81q20 -53 20 -81z" />
    <glyph glyph-name="s" unicode="s" horiz-adv-x="708" 
d="M633 526q0 -19 -5 -27q-20 -36 -62 -36q-35 0 -93 39q-35 25 -93 60v38q86 -3 97 -3q32 0 64 5q3 0 17 4q11 2 15 2q30 0 46 -27q14 -23 14 -55zM666 193q0 -65 -54 -121q-44 -44 -96 -58q-9 -2 -25 -5q-21 -5 -24 -5q-26 0 -38 59q-15 75 -22 85q-33 49 -78 61
q-50 10 -149 33q-93 25 -148 108q-16 25 -16 59q0 73 65.5 139t139.5 66q39 0 49 -67q8 -54 12 -65q11 -34 41 -48t110 -29q91 -17 117 -28q59 -23 89 -77q27 -49 27 -107zM303 11q-22 1 -46 1q-90 0 -203 -11q-24 23 -24 83q0 31 11 54q14 30 42 30q37 0 123.5 -60.5
t96.5 -96.5z" />
    <glyph glyph-name="t" unicode="t" horiz-adv-x="763" 
d="M734 555q0 -4 -1.5 -11.5t-1.5 -10.5q0 -69 -1 -77q-6 -37 -34 -65h-111q-19 25 -31 76q-10 44 -10 82q0 42 11 52q27 24 92 24q87 0 87 -70zM544 41q0 -25 -47 -38q-11 -3 -15 -4h-234q-51 25 -51 54q0 17 29 55.5t29 55.5v402q22 53 101 53q40 0 71 -15q39 -18 39 -38
l11 -372q1 -32 34 -85.5t33 -67.5zM169 415q-29 -33 -80 -33q-37 0 -63 21t-26 58v104q0 27 32 42q25 13 54 13q55 0 83 -31v-174z" />
    <glyph glyph-name="u" unicode="u" horiz-adv-x="750" 
d="M707 564q0 -27 -20.5 -72.5t-20.5 -55.5v-255q0 -51 -71 -113t-128 -62q-12 0 -21 4q-23 10 -23 59q0 13 3 18q20 27 51 70t31 99v135q0 43 -38.5 108t-38.5 72q0 38 158 38h107q11 -21 11 -45zM337 58q0 -36 -34 -60h-10q-48 0 -124.5 47.5t-98.5 102.5q-7 16 -7 21v232
q0 50 -23 88.5t-23 59.5q0 27 16 70h237q3 0 15 -3q50 -11 50 -43q0 -21 -30 -68t-30 -59v-235q0 -15 31 -70.5t31 -82.5z" />
    <glyph glyph-name="v" unicode="v" horiz-adv-x="730" 
d="M695 556q0 -21 -29 -62q-37 -52 -41 -62q-21 -46 -51 -140t-50 -138q-69 35 -69 157q0 25 5 68q5 50 6 66l1 4q0 14 -15 57q-17 47 -17 89q22 24 56 24h181q23 -20 23 -63zM428 30q-20 -15 -60 -25q-36 -10 -64 -10q-33 0 -50 14q-27 22 -59 98q-21 57 -42 113
q-72 188 -152 341q6 26 45 39q29 9 63 9h192q26 -9 26 -42q0 -21 -10.5 -62t-10.5 -62q0 -33 71 -221q51 -135 51 -192z" />
    <glyph glyph-name="w" unicode="w" horiz-adv-x="1046" 
d="M1016 537q0 -26 -24 -53q-32 -36 -38 -48q-25 -55 -49 -143q-37 -132 -41 -145q-33 23 -56 60q-24 41 -24 78q0 25 13.5 70.5t13.5 68.5q0 14 -14 58t-14 66q0 35 24 53h172q19 0 29 -24q8 -19 8 -41zM769 28q0 -9 -1 -16q-44 -24 -75 -24q-37 0 -65 39q-10 13 -37 70
q-25 53 -49 78q-4 1 -9 1q-9 0 -27 -2.5t-27 -2.5q-13 11 -45 76v105q0 14 10.5 48t10.5 52q0 16 -12 41q-15 30 -17.5 40t-2.5 32q0 4 7 18t7 21q0 4 -1 7h182q38 0 65 -33v-6q1 -25 -12.5 -74t-13.5 -73q0 -37 64 -212q48 -130 48 -185zM411 0h-119q-46 0 -104 183
q-21 74 -66 221q-4 14 -45 86q-33 60 -45 98q30 35 98 35h82.5h81.5l45 -59l-28 -114z" />
    <glyph glyph-name="x" unicode="x" horiz-adv-x="755" 
d="M697 592q0 -22 -17 -44q-11 -13 -35 -32q-28 -20 -37 -30q-16 -17 -47 -49q-22 -22 -33 -22q-24 0 -50 53q-23 46 -23 91q0 37 18 57h216q8 -9 8 -24zM721 71q0 -41 -44 -68h-267q-29 13 -29 47q0 14 5 41.5t5 40.5q0 32 -19 52q-71 77 -129 144q-41 47 -127 138
q-14 14 -49 35t-49 35.5t-14 32.5q0 24 20 41.5t45 16.5h3l255 -11q26 -1 26 -49q0 -9 -1 -28t-1 -29q0 -57 24 -86q48 -57 169 -167q71 -64 116 -108q18 -17 51 -53q10 -12 10 -25zM288 70q0 -67 -67 -67h-118q-3 1 -53 12q-29 6 -36 35q4 22 28 44q23 17 67 53
q79 67 101 67q6 0 13 -5q27 -21 46 -62t19 -77z" />
    <glyph glyph-name="y" unicode="y" horiz-adv-x="739" 
d="M716 600q0 -70 -180 -193q-28 19 -49 72q-18 47 -18 86q0 77 65 77q6 0 17.5 -2.5t16.5 -2.5h128q20 -14 20 -37zM519 60q0 -12 -4 -24q-12 -11 -49 -20q-27 -7 -56 -14h-85q-14 0 -42 -7.5t-43 -7.5q-29 0 -46 29v3q0 12 17 38q23 33 26 39q17 38 17 85q0 78 -58 142
q-43 48 -62 68q-42 44 -66 63q-23 15 -63 47q-14 14 -14 35q0 39 45 70h202q11 0 33.5 1.5t33.5 1.5q28 0 50 -9q5 -9 5 -31q0 -13 -2 -38t-2 -38q0 -40 15 -64q7 -14 42 -53q45 -49 50 -71q4 -17 4 -41q0 -12 -2 -36t-2 -36q0 -63 52 -107q4 -13 4 -25z" />
    <glyph glyph-name="z" unicode="z" horiz-adv-x="743" 
d="M314 575q0 -8 -3.5 -12.5t-48.5 -26.5t-65 -43q-16 -16 -28 -51q-4 -17 -17 -47q-22 -13 -55 -13q-53 0 -66 34v161q17 36 59 36h212q12 -13 12 -38zM687 67q0 -47 -35 -72h-260q0 8 -4.5 25t-4.5 25v4q32 23 64 45q36 27 57 51q14 16 31 52.5t28 50.5q47 5 48 5
q76 0 76 -69v-117zM676 580q0 -41 -112 -170q-30 -34 -150 -161q-54 -57 -161 -172q-74 -78 -81 -78h-115q-2 0 -7 -1h-7q-28 0 -28 26q0 56 114 202q108 138 234 252q137 124 193 124h83q37 0 37 -22z" />
    <glyph glyph-name="asciitilde" unicode="~" horiz-adv-x="1414" 
d="M62 293h1v47h67v28h-18v88h18v31h-18v37h439v-46q-7 13 -24 13q-46 0 -46 -77q0 -76 48 -76q15 0 31 19v-17h24v184h374v-26h34v26h360v-524h-1290v293zM938 340v94q0 54 -47 54q-24 0 -31 -24q-9 24 -28 24q-17 0 -27 -24v23h-32v-119h-19v-28h70v28h-19v61q0 23 19 23
q15 0 15 -23v-89h51v28h-19v61q0 22 19 22q15 0 15 -22v-89h33zM986 267h-56v-189h32v122h3l9 -122h58v189h-32v-122h-3zM480 267v-189h79l11 21v62l-8 14v3l8 14v55l-11 20h-79zM826 247v-148l10 -21h67l12 21v148l-11 20h-68zM271 267v-189h38v83h11v-83h41v76l-15 21v3
l15 20v49l-11 20h-79zM256 293h33v56q7 -12 24 -12q46 0 46 76t-48 76q-14 0 -31 -20v18h-24v-194zM475 412q0 78 -55 78q-54 0 -54 -78q0 -76 54 -76q55 0 55 76zM1184 209h38v38l-10 20h-66l-11 -20v-66l12 -20l37 -9v-38h-10v28h-39v-43l11 -21h65l11 21v72l-13 21l-35 8
v33h10v-24zM256 78v69l-26 120h-41l-23 -120v-69h37v36h13v-36h40zM464 78v69l-24 120h-41l-23 -120v-69h38v36h12v-36h38zM169 293h21q55 6 55 71v123h-33v-91q0 -26 -20 -26q-19 0 -19 26v91h-32v-85q0 -64 46 -64q14 0 25 8q0 -23 -28 -23h-15v-30zM678 159h26v33h-26v35
h26v40h-64v-189h64v42h-26v39zM786 156h24v33h-24v38h24v40h-63v-189h39v78zM1064 227v-149h39v149h21v40h-81v-40h21zM685 487h-15v-23q-11 26 -33 26q-43 0 -43 -43q0 -27 22 -36q-23 -9 -23 -33q1 -42 45 -42q22 0 34.5 13t12.5 40h-15q-3 -19 -25 -19q-20 0 -20 14
q0 18 20 18h10v18h-10q-20 0 -20 17q0 16 20 16q17 0 25 -20h15v54zM1096 485h-16v-21q-12 26 -30 26q-50 0 -50 -78q0 -75 51 -75q36 0 45 58h-16q-3 -23 -25 -23q-23 0 -23 40q0 41 23 41t25 -27h16v59zM151 120h-22v147h-38v-189h60v42zM625 78v189h-39v-189h39zM740 368
h-14v65q0 20 14 20q6 0 12 -6l11 33q-8 7 -17 8q-21 0 -31 -24v23h-19v-147h44v28zM943 487v-31h15v-116h34v147h-49zM286 437q6 15 21 15q21 0 21 -38q0 -43 -22 -43q-14 0 -20 16v50zM442 412q0 -40 -22 -40q-21 0 -21 40q0 41 21 41q22 0 22 -41zM553 389q-6 -14 -20 -14
q-21 0 -21 38q0 43 22 43q13 0 19 -16v-51zM63 368v88h19v-88h-19zM864 114v119h11v-119h-11zM63 487v37h19v-37h-19zM203 142v19l6 50h2l5 -50v-19h-13zM414 142v19l5 50h3l4 -50v-19h-12zM519 161h11v-47h-11v47zM519 192v41h11v-41h-11zM309 192v41h11v-41h-11z" />
    <glyph glyph-name="exclamdown" unicode="&#xa1;" horiz-adv-x="292" 
d="M189 -119q0 -42 -32 -65q-28 -21 -72 -21q-46 0 -74 41q-24 36 -24 85q0 35 18 86q24 73 27 83q17 74 21 87q21 62 45 62q25 0 38 -66q11 -61 15 -92q12 -49 24 -99q14 -59 14 -101zM167 356q0 -26 -19.5 -48t-45.5 -22q-24 0 -51.5 24.5t-27.5 47.5q0 70 79 70
q65 0 65 -72z" />
    <glyph glyph-name="cent" unicode="&#xa2;" horiz-adv-x="664" 
d="M440 678q0 -24 -25 -39q-20 -13 -46 -13q-25 0 -46 13q-24 15 -24 39q0 23 24 38q21 13 46 13q26 0 46 -13q25 -15 25 -38zM440 -77q0 -26 -17.5 -45t-43.5 -19t-43.5 19t-17.5 45t17.5 45t43.5 19t43.5 -19t17.5 -45zM649 445q0 -4 -7 -23q-21 -54 -61 -54
q-48 0 -99.5 71t-51.5 132q0 8 1 16q24 1 77 12q49 11 77 11q46 0 59 -30q5 -11 5 -18v-117zM618 214q0 -56 -29 -110q-25 -47 -62 -68q-6 -2 -19 -8q-38 -20 -71 -20q-14 0 -17 1q-11 3 -19 26q-7 19 -7 34q0 10 5 19l46 100q33 60 69 82q31 19 54 19q50 0 50 -75zM334 551
q0 -50 -23 -79q-15 -19 -19 -34q-11 -33 -11 -129q0 -44 9 -105q10 -66 10 -75v-120q-14 -10 -34 -10q-68 0 -155 84t-87 152v137q0 3 7 23q28 78 100 145q81 76 151 76q28 0 44 -11q8 -6 8 -54z" />
    <glyph glyph-name="yen" unicode="&#xa5;" horiz-adv-x="772" 
d="M758 600q0 -70 -180 -193q-28 19 -48 72q-18 47 -18 86q0 77 64 77q6 0 18 -2.5t17 -2.5h128q19 -14 19 -37zM562 60q0 -12 -4 -24q-12 -11 -49 -20q-28 -7 -57 -14h-84q-15 0 -43 -7.5t-42 -7.5q-30 0 -46 29v3q-1 12 17 38q23 33 26 39q17 38 17 85q0 78 -58 142
q-43 48 -62 68q-42 44 -67 63q-22 15 -63 47q-13 14 -13 35q0 39 45 70h201q12 0 34.5 1.5t33.5 1.5q28 0 49 -9q6 -9 6 -31q0 -13 -2 -38t-2 -38q0 -40 14 -64q8 -14 43 -53q44 -49 49 -71q4 -17 4 -41q0 -12 -1.5 -36t-1.5 -36q0 -63 52 -107q4 -13 4 -25zM657 219
q0 -39 -263 -39h-110q-74 -1 -111 -1q-56 0 -56 34q0 73 195 73q31 0 91.5 -2.5t91.5 -2.5q162 0 162 -62zM649 116q0 -27 -54 -43q-43 -13 -95 -13h-331q-25 0 -40 26q-11 19 -11 37q0 25 161 25q36 0 107.5 -1.5t107.5 -1.5q16 0 48 2t49 2q58 0 58 -33z" />
    <glyph glyph-name="dieresis" unicode="&#xa8;" horiz-adv-x="450" 
d="M377 568q0 -20 -16 -32t-36 -12q-21 0 -37 12t-16 32q0 19 16.5 31.5t36.5 12.5t36 -12.5t16 -31.5zM207 568q0 -20 -16 -32t-36 -12t-36.5 12t-16.5 32t16 32t37 12q20 0 36 -12.5t16 -31.5z" />
    <glyph glyph-name="copyright" unicode="&#xa9;" horiz-adv-x="661" 
d="M608 366q0 -117 -82 -199t-199 -82q-116 0 -198 82t-82 199q0 116 82 198t198 82t198.5 -82t82.5 -198zM584 366q0 106 -75 181t-182 75q-105 0 -180 -75t-75 -181t74.5 -181t180.5 -75t181.5 75t75.5 181zM504 441q-1 -6 -4 -13q-11 -30 -32 -30q-27 0 -54.5 40
t-27.5 74v10q13 0 41 6.5t42 6.5q25 0 32 -17q3 -6 3 -10v-67zM487 310q0 -32 -14.5 -60.5t-34.5 -39.5q-3 -2 -10 -5q-20 -11 -38 -11h-9q-15 4 -15 34q0 6 3 11q13 28 25 56q18 35 36 46.5t30 11.5q27 0 27 -43zM334 501q0 -28 -12 -44q-8 -11 -11 -20q-6 -18 -6 -73
q0 -25 5 -59q5 -38 5 -43v-68q-7 -6 -17 -6q-37 0 -84 47.5t-47 86.5v78q1 5 4 13q15 44 54 82q43 43 81 43q15 0 24 -6q4 -3 4 -31z" />
    <glyph glyph-name="registered" unicode="&#xae;" horiz-adv-x="661" 
d="M608 366q0 -117 -82 -199t-199 -82q-116 0 -198 82t-82 199q0 116 82 198t198 82t198.5 -82t82.5 -198zM584 366q0 106 -75 181t-182 75q-105 0 -180 -75t-75 -181t74.5 -181t180.5 -75t181.5 75t75.5 181zM513 269q-2 -55 -62 -55q-47 0 -67 36q-5 9 -9 33q-2 12 -8 35
q-4 12 -25 31q-16 15 -16 34q0 5 1 11q26 16 31 20q17 14 17 33q0 14 -24.5 33t-24.5 33q0 3 1 6l51 4q26 2 40 2t42 -26t28 -55q0 -19 -17 -36l-21 -21q5 -22 16.5 -60t46.5 -58zM311 234v-5h-121q-4 0 -8 2q-18 6 -18 20q0 10 12 30t12 23v140q0 5 -12.5 28.5t-12.5 35.5
q0 14 13 22h91l21 -17v-199q23 -70 23 -80z" />
    <glyph glyph-name="degree" unicode="&#xb0;" horiz-adv-x="396" 
d="M346 526q0 -62 -44 -106t-106 -44q-63 0 -106.5 44t-43.5 106q0 64 43.5 107.5t106.5 43.5t106.5 -44t43.5 -107zM305 527q0 45 -32 77t-77 32q-46 0 -77.5 -31.5t-31.5 -77.5t31.5 -77.5t77.5 -31.5q45 0 77 32t32 77z" />
    <glyph glyph-name="acute" unicode="&#xb4;" horiz-adv-x="363" 
d="M256 626q0 -9 -31.5 -23.5t-61.5 -28.5q-35 -15 -65 -15q-22 0 -22 10q0 16 59 40q77 30 90 30q31 0 31 -13z" />
    <glyph glyph-name="cedilla" unicode="&#xb8;" horiz-adv-x="196" 
d="M176 -102q0 -40 -32 -64t-73 -24q-19 0 -46 3v21q17 -2 24 -2q22 0 40.5 15.5t18.5 38.5q0 36 -42 36q-4 0 -10 -1l54 87h29l-24 -39q61 -14 61 -71z" />
    <glyph glyph-name="ordmasculine" unicode="&#xba;" horiz-adv-x="352" 
d="M313 533q0 -61 -43 -105t-104 -44q-59 0 -98 40.5t-39 100.5q0 66 39 108.5t105 42.5q60 0 100 -41.5t40 -101.5zM245 500q0 51 -18 96q-24 59 -68 59q-62 0 -62 -92q0 -52 17 -96q23 -58 67 -58q64 0 64 91z" />
    <glyph glyph-name="questiondown" unicode="&#xbf;" horiz-adv-x="485" 
d="M292 -133q0 139 93 139q27 0 46.5 -14.5t19.5 -39.5q0 -44 -36.5 -76.5t-80.5 -32.5q-42 0 -42 24zM15 -34q0 49 35 77q37 23 75 45q10 7 22 21q18 22 19 25t1 8q0 8 -2 22t-2 22q0 39 51 82q-2 10 -18 45q-12 28 -12 46q0 31 26 58q90 -26 90 -57q0 -11 -22 -41t-22 -47
q0 -6 2 -12q36 -11 58 -68q18 -47 18 -93t-19 -65q-7 -6 -60 -33q-40 -21 -55 -39q-9 -12 -9 -117q-67 1 -115 27q-61 34 -61 94z" />
    <glyph glyph-name="Agrave" unicode="&#xc0;" 
d="M705 85q0 -26 -23 -43.5t-50 -18.5l-247 -10q-21 21 -21 46l1 3q50 85 50 118q0 8 -16 40.5t-16 63.5v63q36 106 77 226q41 -28 73 -99q19 -41 46 -129q13 -45 39 -113l21 -30q19 -29 56 -86q10 -16 10 -31zM360 614q-10 -86 -26 -147q-2 -9 -21 -58q-16 -43 -16 -51
v-152q-15 -12 -31 -24q-18 -15 -18 -34q0 -16 18 -50.5t18 -58.5q0 -47 -67 -47h-189q-16 0 -25.5 17t-9.5 34q0 4 1 8q9 13 37 41q25 25 35 43q32 59 71 166l26 73q18 46 51 141q29 86 84 98q13 3 30 3q15 0 32 -2zM417 710q0 -10 -22 -10q-30 0 -65 15q-30 14 -61 28.5
t-31 23.5q0 13 30 13q13 0 90 -30q59 -24 59 -40z" />
    <glyph glyph-name="Aacute" unicode="&#xc1;" 
d="M705 85q0 -26 -23 -43.5t-50 -18.5l-247 -10q-21 21 -21 46l1 3q50 85 50 118q0 8 -16 40.5t-16 63.5v63q36 106 77 226q41 -28 73 -99q19 -41 46 -129q13 -45 39 -113l21 -30q19 -29 56 -86q10 -16 10 -31zM360 614q-10 -86 -26 -147q-2 -9 -21 -58q-16 -43 -16 -51
v-152q-15 -12 -31 -24q-18 -15 -18 -34q0 -16 18 -50.5t18 -58.5q0 -47 -67 -47h-189q-16 0 -25.5 17t-9.5 34q0 4 1 8q9 13 37 41q25 25 35 43q32 59 71 166l26 73q18 46 51 141q29 86 84 98q13 3 30 3q15 0 32 -2zM430 768q0 -9 -31.5 -23.5t-61.5 -28.5q-35 -15 -65 -15
q-22 0 -22 10q0 16 59 40q77 30 90 30q31 0 31 -13z" />
    <glyph glyph-name="Acircumflex" unicode="&#xc2;" 
d="M705 85q0 -26 -23 -43.5t-50 -18.5l-247 -10q-21 21 -21 46l1 3q50 85 50 118q0 8 -16 40.5t-16 63.5v63q36 106 77 226q41 -28 73 -99q19 -41 46 -129q13 -45 39 -113l21 -30q19 -29 56 -86q10 -16 10 -31zM360 614q-10 -86 -26 -147q-2 -9 -21 -58q-16 -43 -16 -51
v-152q-15 -12 -31 -24q-18 -15 -18 -34q0 -16 18 -50.5t18 -58.5q0 -47 -67 -47h-189q-16 0 -25.5 17t-9.5 34q0 4 1 8q9 13 37 41q25 25 35 43q32 59 71 166l26 73q18 46 51 141q29 86 84 98q13 3 30 3q15 0 32 -2zM448 728q0 -18 -24 -18q-16 0 -42.5 19.5t-42.5 19.5
q-18 0 -44 -20.5t-42 -20.5q-20 0 -20 16q0 9 19 24q47 38 86 38q25 0 65 -18q45 -20 45 -40z" />
    <glyph glyph-name="Atilde" unicode="&#xc3;" 
d="M705 85q0 -26 -23 -43.5t-50 -18.5l-247 -10q-21 21 -21 46l1 3q50 85 50 118q0 8 -16 40.5t-16 63.5v63q36 106 77 226q41 -28 73 -99q19 -41 46 -129q13 -45 39 -113l21 -30q19 -29 56 -86q10 -16 10 -31zM360 614q-10 -86 -26 -147q-2 -9 -21 -58q-16 -43 -16 -51
v-152q-15 -12 -31 -24q-18 -15 -18 -34q0 -16 18 -50.5t18 -58.5q0 -47 -67 -47h-189q-16 0 -25.5 17t-9.5 34q0 4 1 8q9 13 37 41q25 25 35 43q32 59 71 166l26 73q18 46 51 141q29 86 84 98q13 3 30 3q15 0 32 -2zM481 741q0 -26 -35 -54q-20 -16 -47 -16q-9 0 -19 1
q-17 2 -36.5 26.5t-32.5 24.5q-17 0 -25 -24.5t-21 -24.5q-14 0 -27 11.5t-13 24.5q0 20 30 41t49 21q18 0 48 -24t43 -24q9 0 16 8q3 3 9 27q4 15 24 15q13 0 25 -10t12 -23z" />
    <glyph glyph-name="Adieresis" unicode="&#xc4;" 
d="M705 85q0 -26 -23 -43.5t-50 -18.5l-247 -10q-21 21 -21 46l1 3q50 85 50 118q0 8 -16 40.5t-16 63.5v63q36 106 77 226q41 -28 73 -99q19 -41 46 -129q13 -45 39 -113l21 -30q19 -29 56 -86q10 -16 10 -31zM360 614q-10 -86 -26 -147q-2 -9 -21 -58q-16 -43 -16 -51
v-152q-15 -12 -31 -24q-18 -15 -18 -34q0 -16 18 -50.5t18 -58.5q0 -47 -67 -47h-189q-16 0 -25.5 17t-9.5 34q0 4 1 8q9 13 37 41q25 25 35 43q32 59 71 166l26 73q18 46 51 141q29 86 84 98q13 3 30 3q15 0 32 -2zM495 734q0 -20 -16 -32t-36 -12q-21 0 -37 12t-16 32
q0 19 16.5 31.5t36.5 12.5t36 -12.5t16 -31.5zM325 734q0 -20 -16 -32t-36 -12t-36.5 12t-16.5 32t16 32t37 12q20 0 36 -12.5t16 -31.5z" />
    <glyph glyph-name="Aring" unicode="&#xc5;" 
d="M705 85q0 -26 -23 -43.5t-50 -18.5l-247 -10q-21 21 -21 46l1 3q50 85 50 118q0 8 -16 40.5t-16 63.5v63q36 106 77 226q41 -28 73 -99q19 -41 46 -129q13 -45 39 -113l21 -30q19 -29 56 -86q10 -16 10 -31zM360 614q-10 -86 -26 -147q-2 -9 -21 -58q-16 -43 -16 -51
v-152q-15 -12 -31 -24q-18 -15 -18 -34q0 -16 18 -50.5t18 -58.5q0 -47 -67 -47h-189q-16 0 -25.5 17t-9.5 34q0 4 1 8q9 13 37 41q25 25 35 43q32 59 71 166l26 73q18 46 51 141q29 86 84 98q13 3 30 3q15 0 32 -2zM430 707q0 -38 -27.5 -62.5t-65.5 -24.5t-66 25t-28 62
t28 61.5t66 24.5q37 0 65 -24.5t28 -61.5zM396 707q0 23 -18 39t-41 16q-25 0 -42.5 -15.5t-17.5 -39.5t17.5 -39.5t42.5 -15.5q23 0 41 15.5t18 39.5z" />
    <glyph glyph-name="AE" unicode="&#xc6;" horiz-adv-x="1079" 
d="M1036 398q-37 -39 -105 -39q-27 0 -43 24q-9 13 -21.5 49t-22.5 49q-20 23 -73 43q-68 24 -81 32q15 61 50 61l261 -1l35 -35v-183zM783 334q0 -98 -47 -98q-25 0 -45.5 26t-20.5 51q0 27 27 66t52 39t31 -33q3 -12 3 -51zM1026 49q0 -18 -35 -46h-277q-16 0 -25.5 17
t-9.5 34q0 4 1 8q14 24 34 31q11 3 46.5 3t60.5 28q16 17 37.5 61.5t32.5 59.5h135v-196zM618 85q0 -25 -37 -52q-12 -11 -35 -30h-103q-10 5 -16 12l-49 -2q-21 21 -21 46l1 3q50 85 50 118q0 8 -16 42t-16 62v63l62 181q-10 20 -10 47q0 26 35 38q9 3 11 3h126
q-6 -29 -6 -82v-397q24 -36 24 -52zM353 614q-10 -88 -26 -147q-2 -7 -21 -57q-16 -43 -16 -52v-152q-16 -12 -31 -24q-18 -15 -18 -34q0 -16 18 -50.5t18 -58.5q0 -47 -67 -47h-189q-16 0 -25.5 17t-9.5 34q0 4 1 8q9 13 37 41q25 25 35 43q30 54 71 166q13 39 41 111
q6 13 36 103q29 85 83 98q13 3 31 3q15 0 32 -2z" />
    <glyph glyph-name="Ccedilla" unicode="&#xc7;" horiz-adv-x="661" 
d="M639 445q0 -4 -7 -23q-20 -54 -61 -54q-48 0 -99.5 71t-51.5 132q0 8 1 16q24 1 77 12q50 11 77 11q46 0 59 -30q5 -11 5 -18v-117zM608 214q0 -56 -28 -110q-26 -47 -63 -68q-6 -2 -18 -8q-39 -20 -71 -20q-15 0 -18 1q-11 3 -19 26q-7 19 -7 34q0 10 5 19q23 50 47 100
q32 60 68 82q31 19 54 19q50 0 50 -75zM324 551q0 -50 -23 -79q-14 -19 -19 -34q-11 -33 -11 -129q0 -44 9 -105q10 -66 10 -75v-120q-14 -10 -34 -10q-68 0 -155 84t-87 152v137q0 3 8 23q27 78 99 145q82 76 151 76q29 0 44 -11q8 -6 8 -54zM386 -119q0 -40 -32 -64
t-73 -24q-19 0 -46 3v21q17 -2 24 -2q22 0 40.5 15.5t18.5 38.5q0 36 -42 36q-4 0 -10 -1l54 87h29l-24 -39q61 -14 61 -71z" />
    <glyph glyph-name="Egrave" unicode="&#xc8;" horiz-adv-x="774" 
d="M735 398q-16 -17 -47.5 -28t-57.5 -11q-28 0 -44 24q-8 12 -21 50q-12 35 -23 48q-20 23 -73 43q-67 24 -81 32q16 61 51 61l261 -1l35 -35v-183zM481 359q0 -56 -3 -75q-10 -48 -44 -48q-24 0 -44.5 26t-20.5 51q0 27 27 66t52 39q33 0 33 -59zM724 49q0 -18 -34 -46
h-277q-16 0 -25.5 17t-9.5 34q0 4 1 8q14 25 34 31q11 3 46.5 3t60.5 28q16 17 37 61.5t33 59.5h134v-196zM298 616q-5 -29 -5 -109v-459q-13 -17 -49 -45h-182q-27 15 -27 41q0 22 27.5 71t27.5 63v194q0 75 -5 100q-2 11 -21 43q-18 28 -18 60q0 27 36 38q8 2 10 3h206z
M454 708q0 -10 -22 -10q-30 0 -65 15q-30 14 -61 28.5t-31 23.5q0 13 30 13q13 0 90 -30q59 -24 59 -40z" />
    <glyph glyph-name="Eacute" unicode="&#xc9;" horiz-adv-x="802" 
d="M735 398q-16 -17 -47.5 -28t-57.5 -11q-28 0 -44 24q-8 12 -21 50q-12 35 -23 48q-20 23 -73 43q-67 24 -81 32q16 61 51 61l261 -1l35 -35v-183zM481 359q0 -56 -3 -75q-10 -48 -44 -48q-24 0 -44.5 26t-20.5 51q0 27 27 66t52 39q33 0 33 -59zM724 49q0 -18 -34 -46
h-277q-16 0 -25.5 17t-9.5 34q0 4 1 8q14 25 34 31q11 3 46.5 3t60.5 28q16 17 37 61.5t33 59.5h134v-196zM298 616q-5 -29 -5 -109v-459q-13 -17 -49 -45h-182q-27 15 -27 41q0 22 27.5 71t27.5 63v194q0 75 -5 100q-2 11 -21 43q-18 28 -18 60q0 27 36 38q8 2 10 3h206z
M460 771q0 -9 -31.5 -23.5t-61.5 -28.5q-35 -15 -65 -15q-22 0 -22 10q0 16 59 40q77 30 90 30q31 0 31 -13z" />
    <glyph glyph-name="Ecircumflex" unicode="&#xca;" horiz-adv-x="802" 
d="M735 398q-16 -17 -47.5 -28t-57.5 -11q-28 0 -44 24q-8 12 -21 50q-12 35 -23 48q-20 23 -73 43q-67 24 -81 32q16 61 51 61l261 -1l35 -35v-183zM481 359q0 -56 -3 -75q-10 -48 -44 -48q-24 0 -44.5 26t-20.5 51q0 27 27 66t52 39q33 0 33 -59zM724 49q0 -18 -34 -46
h-277q-16 0 -25.5 17t-9.5 34q0 4 1 8q14 25 34 31q11 3 46.5 3t60.5 28q16 17 37 61.5t33 59.5h134v-196zM298 616q-5 -29 -5 -109v-459q-13 -17 -49 -45h-182q-27 15 -27 41q0 22 27.5 71t27.5 63v194q0 75 -5 100q-2 11 -21 43q-18 28 -18 60q0 27 36 38q8 2 10 3h206z
M444 730q0 -18 -24 -18q-16 0 -42.5 19.5t-42.5 19.5q-18 0 -44 -20.5t-42 -20.5q-20 0 -20 16q0 9 19 24q47 38 86 38q25 0 65 -18q45 -20 45 -40z" />
    <glyph glyph-name="Edieresis" unicode="&#xcb;" horiz-adv-x="802" 
d="M735 398q-16 -17 -47.5 -28t-57.5 -11q-28 0 -44 24q-8 12 -21 50q-12 35 -23 48q-20 23 -73 43q-67 24 -81 32q16 61 51 61l261 -1l35 -35v-183zM481 359q0 -56 -3 -75q-10 -48 -44 -48q-24 0 -44.5 26t-20.5 51q0 27 27 66t52 39q33 0 33 -59zM724 49q0 -18 -34 -46
h-277q-16 0 -25.5 17t-9.5 34q0 4 1 8q14 25 34 31q11 3 46.5 3t60.5 28q16 17 37 61.5t33 59.5h134v-196zM298 616q-5 -29 -5 -109v-459q-13 -17 -49 -45h-182q-27 15 -27 41q0 22 27.5 71t27.5 63v194q0 75 -5 100q-2 11 -21 43q-18 28 -18 60q0 27 36 38q8 2 10 3h206z
M508 739q0 -20 -16 -32t-36 -12q-21 0 -37 12t-16 32q0 19 16.5 31.5t36.5 12.5t36 -12.5t16 -31.5zM338 739q0 -20 -16 -32t-36 -12t-36.5 12t-16.5 32t16 32t37 12q20 0 36 -12.5t16 -31.5z" />
    <glyph glyph-name="Igrave" unicode="&#xcc;" horiz-adv-x="443" 
d="M382 46q0 -25 -36 -38q-13 -4 -15 -4h-225q-4 0 -10 2q-36 11 -36 34q0 16 21 49t21 40v315q0 9 -22 59q-24 54 -28 70q7 15 9 18q6 8 16 12q44 16 133 16h155q3 -10 3 -21q0 -36 -43 -119v-321q0 -12 28.5 -53.5t28.5 -58.5zM291 708q0 -10 -22 -10q-30 0 -65 15
q-30 14 -61 28.5t-31 23.5q0 13 30 13q13 0 90 -30q59 -24 59 -40z" />
    <glyph glyph-name="Iacute" unicode="&#xcd;" horiz-adv-x="443" 
d="M379 46q0 -25 -36 -38q-13 -4 -15 -4h-225q-4 0 -10 2q-36 11 -36 34q0 16 21 49t21 40v315q0 9 -22 59q-24 54 -28 70q7 15 9 18q6 8 16 12q44 16 133 16h155q3 -10 3 -21q0 -36 -43 -119v-321q0 -12 28.5 -53.5t28.5 -58.5zM316 771q0 -9 -31.5 -23.5t-61.5 -28.5
q-35 -15 -65 -15q-22 0 -22 10q0 16 59 40q77 30 90 30q31 0 31 -13z" />
    <glyph glyph-name="Icircumflex" unicode="&#xce;" horiz-adv-x="443" 
d="M369 46q0 -25 -36 -38q-13 -4 -15 -4h-225q-4 0 -10 2q-36 11 -36 34q0 16 21 49t21 40v315q0 9 -22 59q-24 54 -28 70q7 15 9 18q6 8 16 12q44 16 133 16h155q3 -10 3 -21q0 -36 -43 -119v-321q0 -12 28.5 -53.5t28.5 -58.5zM295 733q0 -18 -24 -18q-16 0 -42.5 19.5
t-42.5 19.5q-18 0 -44 -20.5t-42 -20.5q-20 0 -20 16q0 9 19 24q47 38 86 38q25 0 65 -18q45 -20 45 -40z" />
    <glyph glyph-name="Idieresis" unicode="&#xcf;" horiz-adv-x="443" 
d="M376 46q0 -25 -36 -38q-13 -4 -15 -4h-225q-4 0 -10 2q-36 11 -36 34q0 16 21 49t21 40v315q0 9 -22 59q-24 54 -28 70q7 15 9 18q6 8 16 12q44 16 133 16h155q3 -10 3 -21q0 -36 -43 -119v-321q0 -12 28.5 -53.5t28.5 -58.5zM355 740q0 -20 -16 -32t-36 -12
q-21 0 -37 12t-16 32q0 19 16.5 31.5t36.5 12.5t36 -12.5t16 -31.5zM185 740q0 -20 -16 -32t-36 -12t-36.5 12t-16.5 32t16 32t37 12q20 0 36 -12.5t16 -31.5z" />
    <glyph glyph-name="Ntilde" unicode="&#xd1;" horiz-adv-x="847" 
d="M782 593q0 -18 -24 -58.5t-24 -49.5q0 -97 -1.5 -106t-7.5 -49l-16 -116q-50 43 -83 115q-22 46 -47 137q-28 98 -43 136q16 12 45 21q33 10 51 14h97q3 0 16 -4q37 -13 37 -40zM666 49q-46 -45 -92 -45q-51 0 -108 60q-37 37 -94.5 124.5t-78.5 110.5q-9 -1 -36 -29
v-116q0 -7 22.5 -42.5t22.5 -54.5q0 -33 -48 -55h-106q-110 0 -110 33q0 11 24.5 51.5t24.5 60.5v304q0 19 -34.5 69t-34.5 65q0 31 77 31h200q25 0 66 -16q87 -126 175 -285q92 -166 130 -266zM526 749q0 -26 -35 -54q-20 -16 -47 -16q-9 0 -19 1q-17 2 -36.5 26.5
t-32.5 24.5q-17 0 -25 -24.5t-21 -24.5q-14 0 -27 11.5t-13 24.5q0 20 30 41t49 21q18 0 48 -24t43 -24q9 0 16 8q3 3 9 27q4 15 24 15q13 0 25 -10t12 -23z" />
    <glyph glyph-name="Ograve" unicode="&#xd2;" horiz-adv-x="737" 
d="M714 295q0 -124 -61 -208q-69 -93 -189 -93q-11 0 -22 1q-20 9 -20 44q0 33 20 99q27 92 27 228l-5 20q-34 119 -33 193l1 14q26 5 51 5q111 0 176 -99q55 -86 55 -204zM334 51q0 -20 -18 -45q-13 -7 -31 -7q-73 0 -168 86q-103 93 -103 166v149q0 6 6 25q21 67 89 125
q82 68 160 68q33 0 58 -15q2 -13 2 -25q0 -41 -30 -117.5t-30 -113.5v-80q0 -1 4 -22q13 -67 37 -125t24 -69zM427 710q0 -10 -22 -10q-30 0 -65 15q-30 14 -61 28.5t-31 23.5q0 13 30 13q13 0 90 -30q59 -24 59 -40z" />
    <glyph glyph-name="Oacute" unicode="&#xd3;" horiz-adv-x="737" 
d="M714 295q0 -124 -61 -208q-69 -93 -189 -93q-11 0 -22 1q-20 9 -20 44q0 33 20 99q27 92 27 228l-5 20q-34 119 -33 193l1 14q26 5 51 5q111 0 176 -99q55 -86 55 -204zM334 51q0 -20 -18 -45q-13 -7 -31 -7q-73 0 -168 86q-103 93 -103 166v149q0 6 6 25q21 67 89 125
q82 68 160 68q33 0 58 -15q2 -13 2 -25q0 -41 -30 -117.5t-30 -113.5v-80q0 -1 4 -22q13 -67 37 -125t24 -69zM435 773q0 -9 -31.5 -23.5t-61.5 -28.5q-35 -15 -65 -15q-22 0 -22 10q0 16 59 40q77 30 90 30q31 0 31 -13z" />
    <glyph glyph-name="Ocircumflex" unicode="&#xd4;" horiz-adv-x="737" 
d="M714 295q0 -124 -61 -208q-69 -93 -189 -93q-11 0 -22 1q-20 9 -20 44q0 33 20 99q27 92 27 228l-5 20q-34 119 -33 193l1 14q26 5 51 5q111 0 176 -99q55 -86 55 -204zM334 51q0 -20 -18 -45q-13 -7 -31 -7q-73 0 -168 86q-103 93 -103 166v149q0 6 6 25q21 67 89 125
q82 68 160 68q33 0 58 -15q2 -13 2 -25q0 -41 -30 -117.5t-30 -113.5v-80q0 -1 4 -22q13 -67 37 -125t24 -69zM423 728q0 -18 -24 -18q-16 0 -42.5 19.5t-42.5 19.5q-18 0 -44 -20.5t-42 -20.5q-20 0 -20 16q0 9 19 24q47 38 86 38q25 0 65 -18q45 -20 45 -40z" />
    <glyph glyph-name="Otilde" unicode="&#xd5;" horiz-adv-x="737" 
d="M714 295q0 -124 -61 -208q-69 -93 -189 -93q-11 0 -22 1q-20 9 -20 44q0 33 20 99q27 92 27 228l-5 20q-34 119 -33 193l1 14q26 5 51 5q111 0 176 -99q55 -86 55 -204zM334 51q0 -20 -18 -45q-13 -7 -31 -7q-73 0 -168 86q-103 93 -103 166v149q0 6 6 25q21 67 89 125
q82 68 160 68q33 0 58 -15q2 -13 2 -25q0 -41 -30 -117.5t-30 -113.5v-80q0 -1 4 -22q13 -67 37 -125t24 -69zM489 748q0 -26 -35 -54q-20 -16 -47 -16q-9 0 -19 1q-17 2 -36.5 26.5t-32.5 24.5q-17 0 -25 -24.5t-21 -24.5q-14 0 -27 11.5t-13 24.5q0 20 30 41t49 21
q18 0 48 -24t43 -24q9 0 16 8q3 3 9 27q4 15 24 15q13 0 25 -10t12 -23z" />
    <glyph glyph-name="Odieresis" unicode="&#xd6;" horiz-adv-x="737" 
d="M714 295q0 -124 -61 -208q-69 -93 -189 -93q-11 0 -22 1q-20 9 -20 44q0 33 20 99q27 92 27 228l-5 20q-34 119 -33 193l1 14q26 5 51 5q111 0 176 -99q55 -86 55 -204zM334 51q0 -20 -18 -45q-13 -7 -31 -7q-73 0 -168 86q-103 93 -103 166v149q0 6 6 25q21 67 89 125
q82 68 160 68q33 0 58 -15q2 -13 2 -25q0 -41 -30 -117.5t-30 -113.5v-80q0 -1 4 -22q13 -67 37 -125t24 -69zM530 740q0 -20 -16 -32t-36 -12q-21 0 -37 12t-16 32q0 19 16.5 31.5t36.5 12.5t36 -12.5t16 -31.5zM360 740q0 -20 -16 -32t-36 -12t-36.5 12t-16.5 32t16 32
t37 12q20 0 36 -12.5t16 -31.5z" />
    <glyph glyph-name="Oslash" unicode="&#xd8;" horiz-adv-x="737" 
d="M731 295q0 -124 -61 -208q-69 -93 -189 -93q-11 0 -22 1q-20 9 -20 44q0 33 20 99q27 92 27 228l-5 20q-34 119 -33 193l1 14q26 5 51 5q111 0 176 -99q55 -86 55 -204zM351 51q0 -20 -18 -45q-13 -7 -31 -7q-73 0 -168 86q-103 93 -103 166v149q0 6 6 25q21 67 89 125
q82 68 160 68q33 0 58 -15q2 -13 2 -25q0 -41 -30 -117.5t-30 -113.5v-80q0 -1 4 -22q13 -67 37 -125t24 -69zM637 622q0 -35 -47 -91q-14 -18 -47 -57q-9 -9 -23 -27q-22 -34 -82 -152q-45 -90 -91 -150q-19 -25 -46 -73q-33 -55 -45 -74q-22 -33 -53 -57q-37 -29 -70 -29
q-30 0 -30 26q0 24 21 56q13 18 38 53q28 42 79 136q48 90 79 134q49 66 138 202q74 128 130 128q12 0 30.5 -8t18.5 -17z" />
    <glyph glyph-name="Ugrave" unicode="&#xd9;" horiz-adv-x="750" 
d="M700 564q0 -27 -20.5 -72.5t-20.5 -55.5v-255q0 -51 -71 -113t-128 -62q-12 0 -21 4q-23 10 -23 59q0 13 3 18q20 27 51 70t31 99v135q0 43 -38.5 108t-38.5 72q0 38 158 38h107q11 -21 11 -45zM330 58q0 -36 -34 -60h-10q-48 0 -124.5 47.5t-98.5 102.5q-7 16 -7 21v232
q0 50 -23 88.5t-23 59.5q0 27 16 70h237q3 0 15 -3q50 -11 50 -43q0 -21 -30 -68t-30 -59v-235q0 -15 31 -70.5t31 -82.5zM425 714q0 -10 -22 -10q-30 0 -65 15q-30 14 -61 28.5t-31 23.5q0 13 30 13q13 0 90 -30q59 -24 59 -40z" />
    <glyph glyph-name="Uacute" unicode="&#xda;" horiz-adv-x="750" 
d="M700 564q0 -27 -20.5 -72.5t-20.5 -55.5v-255q0 -51 -71 -113t-128 -62q-12 0 -21 4q-23 10 -23 59q0 13 3 18q20 27 51 70t31 99v135q0 43 -38.5 108t-38.5 72q0 38 158 38h107q11 -21 11 -45zM330 58q0 -36 -34 -60h-10q-48 0 -124.5 47.5t-98.5 102.5q-7 16 -7 21v232
q0 50 -23 88.5t-23 59.5q0 27 16 70h237q3 0 15 -3q50 -11 50 -43q0 -21 -30 -68t-30 -59v-235q0 -15 31 -70.5t31 -82.5zM447 768q0 -9 -31.5 -23.5t-61.5 -28.5q-35 -15 -65 -15q-22 0 -22 10q0 16 59 40q77 30 90 30q31 0 31 -13z" />
    <glyph glyph-name="Ucircumflex" unicode="&#xdb;" horiz-adv-x="750" 
d="M700 564q0 -27 -20.5 -72.5t-20.5 -55.5v-255q0 -51 -71 -113t-128 -62q-12 0 -21 4q-23 10 -23 59q0 13 3 18q20 27 51 70t31 99v135q0 43 -38.5 108t-38.5 72q0 38 158 38h107q11 -21 11 -45zM330 58q0 -36 -34 -60h-10q-48 0 -124.5 47.5t-98.5 102.5q-7 16 -7 21v232
q0 50 -23 88.5t-23 59.5q0 27 16 70h237q3 0 15 -3q50 -11 50 -43q0 -21 -30 -68t-30 -59v-235q0 -15 31 -70.5t31 -82.5zM463 728q0 -18 -24 -18q-16 0 -42.5 19.5t-42.5 19.5q-18 0 -44 -20.5t-42 -20.5q-20 0 -20 16q0 9 19 24q47 38 86 38q25 0 65 -18q45 -20 45 -40z
" />
    <glyph glyph-name="Udieresis" unicode="&#xdc;" horiz-adv-x="750" 
d="M700 564q0 -27 -20.5 -72.5t-20.5 -55.5v-255q0 -51 -71 -113t-128 -62q-12 0 -21 4q-23 10 -23 59q0 13 3 18q20 27 51 70t31 99v135q0 43 -38.5 108t-38.5 72q0 38 158 38h107q11 -21 11 -45zM330 58q0 -36 -34 -60h-10q-48 0 -124.5 47.5t-98.5 102.5q-7 16 -7 21v232
q0 50 -23 88.5t-23 59.5q0 27 16 70h237q3 0 15 -3q50 -11 50 -43q0 -21 -30 -68t-30 -59v-235q0 -15 31 -70.5t31 -82.5zM495 737q0 -20 -16 -32t-36 -12q-21 0 -37 12t-16 32q0 19 16.5 31.5t36.5 12.5t36 -12.5t16 -31.5zM325 737q0 -20 -16 -32t-36 -12t-36.5 12
t-16.5 32t16 32t37 12q20 0 36 -12.5t16 -31.5z" />
    <glyph glyph-name="germandbls" unicode="&#xdf;" horiz-adv-x="1416" 
d="M633 526q0 -19 -5 -27q-20 -36 -62 -36q-35 0 -93 39q-35 25 -93 60v38q86 -3 97 -3q32 0 64 5q3 0 17 4q11 2 15 2q30 0 46 -27q14 -23 14 -55zM666 193q0 -65 -54 -121q-44 -44 -96 -58q-9 -2 -25 -5q-21 -5 -24 -5q-26 0 -38 59q-15 75 -22 85q-33 49 -78 61
q-50 10 -149 33q-93 25 -148 108q-16 25 -16 59q0 73 65.5 139t139.5 66q39 0 49 -67q8 -54 12 -65q11 -34 41 -48t110 -29q91 -17 117 -28q59 -23 89 -77q27 -49 27 -107zM303 11q-22 1 -46 1q-90 0 -203 -11q-24 23 -24 83q0 31 11 54q14 30 42 30q37 0 123.5 -60.5
t96.5 -96.5zM1341 526q0 -19 -5 -27q-20 -36 -62 -36q-35 0 -93 39q-35 25 -93 60v38q86 -3 97 -3q32 0 64 5q3 0 17 4q11 2 15 2q30 0 46 -27q14 -23 14 -55zM1374 193q0 -65 -54 -121q-44 -44 -96 -58q-9 -2 -25 -5q-21 -5 -24 -5q-26 0 -38 59q-15 75 -22 85
q-33 49 -78 61q-50 10 -149 33q-93 25 -148 108q-16 25 -16 59q0 73 65.5 139t139.5 66q39 0 49 -67q8 -54 12 -65q11 -34 41 -48t110 -29q91 -17 117 -28q59 -23 89 -77q27 -49 27 -107zM1011 11q-22 1 -46 1q-90 0 -203 -11q-24 23 -24 83q0 31 11 54q14 30 42 30
q37 0 123.5 -60.5t96.5 -96.5z" />
    <glyph glyph-name="agrave" unicode="&#xe0;" 
d="M705 85q0 -26 -23 -43.5t-50 -18.5l-247 -10q-21 21 -21 46l1 3q50 85 50 118q0 8 -16 40.5t-16 63.5v63q36 106 77 226q41 -28 73 -99q19 -41 46 -129q13 -45 39 -113l21 -30q19 -29 56 -86q10 -16 10 -31zM360 614q-10 -86 -26 -147q-2 -9 -21 -58q-16 -43 -16 -51
v-152q-15 -12 -31 -24q-18 -15 -18 -34q0 -16 18 -50.5t18 -58.5q0 -47 -67 -47h-189q-16 0 -25.5 17t-9.5 34q0 4 1 8q9 13 37 41q25 25 35 43q32 59 71 166l26 73q18 46 51 141q29 86 84 98q13 3 30 3q15 0 32 -2zM417 710q0 -10 -22 -10q-30 0 -65 15q-30 14 -61 28.5
t-31 23.5q0 13 30 13q13 0 90 -30q59 -24 59 -40z" />
    <glyph glyph-name="aacute" unicode="&#xe1;" 
d="M705 85q0 -26 -23 -43.5t-50 -18.5l-247 -10q-21 21 -21 46l1 3q50 85 50 118q0 8 -16 40.5t-16 63.5v63q36 106 77 226q41 -28 73 -99q19 -41 46 -129q13 -45 39 -113l21 -30q19 -29 56 -86q10 -16 10 -31zM360 614q-10 -86 -26 -147q-2 -9 -21 -58q-16 -43 -16 -51
v-152q-15 -12 -31 -24q-18 -15 -18 -34q0 -16 18 -50.5t18 -58.5q0 -47 -67 -47h-189q-16 0 -25.5 17t-9.5 34q0 4 1 8q9 13 37 41q25 25 35 43q32 59 71 166l26 73q18 46 51 141q29 86 84 98q13 3 30 3q15 0 32 -2zM430 768q0 -9 -31.5 -23.5t-61.5 -28.5q-35 -15 -65 -15
q-22 0 -22 10q0 16 59 40q77 30 90 30q31 0 31 -13z" />
    <glyph glyph-name="acircumflex" unicode="&#xe2;" 
d="M705 85q0 -26 -23 -43.5t-50 -18.5l-247 -10q-21 21 -21 46l1 3q50 85 50 118q0 8 -16 40.5t-16 63.5v63q36 106 77 226q41 -28 73 -99q19 -41 46 -129q13 -45 39 -113l21 -30q19 -29 56 -86q10 -16 10 -31zM360 614q-10 -86 -26 -147q-2 -9 -21 -58q-16 -43 -16 -51
v-152q-15 -12 -31 -24q-18 -15 -18 -34q0 -16 18 -50.5t18 -58.5q0 -47 -67 -47h-189q-16 0 -25.5 17t-9.5 34q0 4 1 8q9 13 37 41q25 25 35 43q32 59 71 166l26 73q18 46 51 141q29 86 84 98q13 3 30 3q15 0 32 -2zM448 728q0 -18 -24 -18q-16 0 -42.5 19.5t-42.5 19.5
q-18 0 -44 -20.5t-42 -20.5q-20 0 -20 16q0 9 19 24q47 38 86 38q25 0 65 -18q45 -20 45 -40z" />
    <glyph glyph-name="atilde" unicode="&#xe3;" 
d="M705 85q0 -26 -23 -43.5t-50 -18.5l-247 -10q-21 21 -21 46l1 3q50 85 50 118q0 8 -16 40.5t-16 63.5v63q36 106 77 226q41 -28 73 -99q19 -41 46 -129q13 -45 39 -113l21 -30q19 -29 56 -86q10 -16 10 -31zM360 614q-10 -86 -26 -147q-2 -9 -21 -58q-16 -43 -16 -51
v-152q-15 -12 -31 -24q-18 -15 -18 -34q0 -16 18 -50.5t18 -58.5q0 -47 -67 -47h-189q-16 0 -25.5 17t-9.5 34q0 4 1 8q9 13 37 41q25 25 35 43q32 59 71 166l26 73q18 46 51 141q29 86 84 98q13 3 30 3q15 0 32 -2zM481 741q0 -26 -35 -54q-20 -16 -47 -16q-9 0 -19 1
q-17 2 -36.5 26.5t-32.5 24.5q-17 0 -25 -24.5t-21 -24.5q-14 0 -27 11.5t-13 24.5q0 20 30 41t49 21q18 0 48 -24t43 -24q9 0 16 8q3 3 9 27q4 15 24 15q13 0 25 -10t12 -23z" />
    <glyph glyph-name="adieresis" unicode="&#xe4;" 
d="M705 85q0 -26 -23 -43.5t-50 -18.5l-247 -10q-21 21 -21 46l1 3q50 85 50 118q0 8 -16 40.5t-16 63.5v63q36 106 77 226q41 -28 73 -99q19 -41 46 -129q13 -45 39 -113l21 -30q19 -29 56 -86q10 -16 10 -31zM360 614q-10 -86 -26 -147q-2 -9 -21 -58q-16 -43 -16 -51
v-152q-15 -12 -31 -24q-18 -15 -18 -34q0 -16 18 -50.5t18 -58.5q0 -47 -67 -47h-189q-16 0 -25.5 17t-9.5 34q0 4 1 8q9 13 37 41q25 25 35 43q32 59 71 166l26 73q18 46 51 141q29 86 84 98q13 3 30 3q15 0 32 -2zM495 734q0 -20 -16 -32t-36 -12q-21 0 -37 12t-16 32
q0 19 16.5 31.5t36.5 12.5t36 -12.5t16 -31.5zM325 734q0 -20 -16 -32t-36 -12t-36.5 12t-16.5 32t16 32t37 12q20 0 36 -12.5t16 -31.5z" />
    <glyph glyph-name="aring" unicode="&#xe5;" 
d="M705 85q0 -26 -23 -43.5t-50 -18.5l-247 -10q-21 21 -21 46l1 3q50 85 50 118q0 8 -16 40.5t-16 63.5v63q36 106 77 226q41 -28 73 -99q19 -41 46 -129q13 -45 39 -113l21 -30q19 -29 56 -86q10 -16 10 -31zM360 614q-10 -86 -26 -147q-2 -9 -21 -58q-16 -43 -16 -51
v-152q-15 -12 -31 -24q-18 -15 -18 -34q0 -16 18 -50.5t18 -58.5q0 -47 -67 -47h-189q-16 0 -25.5 17t-9.5 34q0 4 1 8q9 13 37 41q25 25 35 43q32 59 71 166l26 73q18 46 51 141q29 86 84 98q13 3 30 3q15 0 32 -2zM430 707q0 -38 -27.5 -62.5t-65.5 -24.5t-66 25t-28 62
t28 61.5t66 24.5q37 0 65 -24.5t28 -61.5zM396 707q0 23 -18 39t-41 16q-25 0 -42.5 -15.5t-17.5 -39.5t17.5 -39.5t42.5 -15.5q23 0 41 15.5t18 39.5z" />
    <glyph glyph-name="ae" unicode="&#xe6;" horiz-adv-x="1115" 
d="M1036 398q-37 -39 -105 -39q-27 0 -43 24q-9 13 -21.5 49t-22.5 49q-20 23 -73 43q-68 24 -81 32q15 61 50 61l261 -1l35 -35v-183zM783 334q0 -98 -47 -98q-25 0 -45.5 26t-20.5 51q0 27 27 66t52 39t31 -33q3 -12 3 -51zM1026 49q0 -18 -35 -46h-277q-16 0 -25.5 17
t-9.5 34q0 4 1 8q14 24 34 31q11 3 46.5 3t60.5 28q16 17 37.5 61.5t32.5 59.5h135v-196zM618 85q0 -25 -37 -52q-12 -11 -35 -30h-103q-10 5 -16 12l-49 -2q-21 21 -21 46l1 3q50 85 50 118q0 8 -16 42t-16 62v63l62 181q-10 20 -10 47q0 26 35 38q9 3 11 3h126
q-6 -29 -6 -82v-397q24 -36 24 -52zM353 614q-10 -88 -26 -147q-2 -7 -21 -57q-16 -43 -16 -52v-152q-16 -12 -31 -24q-18 -15 -18 -34q0 -16 18 -50.5t18 -58.5q0 -47 -67 -47h-189q-16 0 -25.5 17t-9.5 34q0 4 1 8q9 13 37 41q25 25 35 43q30 54 71 166q13 39 41 111
q6 13 36 103q29 85 83 98q13 3 31 3q15 0 32 -2z" />
    <glyph glyph-name="ccedilla" unicode="&#xe7;" horiz-adv-x="590" 
d="M639 445q0 -4 -7 -23q-20 -54 -61 -54q-48 0 -99.5 71t-51.5 132q0 8 1 16q24 1 77 12q50 11 77 11q46 0 59 -30q5 -11 5 -18v-117zM608 214q0 -56 -28 -110q-26 -47 -63 -68q-6 -2 -18 -8q-39 -20 -71 -20q-15 0 -18 1q-11 3 -19 26q-7 19 -7 34q0 10 5 19q23 50 47 100
q32 60 68 82q31 19 54 19q50 0 50 -75zM324 551q0 -50 -23 -79q-14 -19 -19 -34q-11 -33 -11 -129q0 -44 9 -105q10 -66 10 -75v-120q-14 -10 -34 -10q-68 0 -155 84t-87 152v137q0 3 8 23q27 78 99 145q82 76 151 76q29 0 44 -11q8 -6 8 -54zM386 -119q0 -40 -32 -64
t-73 -24q-19 0 -46 3v21q17 -2 24 -2q22 0 40.5 15.5t18.5 38.5q0 36 -42 36q-4 0 -10 -1l54 87h29l-24 -39q61 -14 61 -71z" />
    <glyph glyph-name="egrave" unicode="&#xe8;" horiz-adv-x="802" 
d="M735 398q-16 -17 -47.5 -28t-57.5 -11q-28 0 -44 24q-8 12 -21 50q-12 35 -23 48q-20 23 -73 43q-67 24 -81 32q16 61 51 61l261 -1l35 -35v-183zM481 359q0 -56 -3 -75q-10 -48 -44 -48q-24 0 -44.5 26t-20.5 51q0 27 27 66t52 39q33 0 33 -59zM724 49q0 -18 -34 -46
h-277q-16 0 -25.5 17t-9.5 34q0 4 1 8q14 25 34 31q11 3 46.5 3t60.5 28q16 17 37 61.5t33 59.5h134v-196zM298 616q-5 -29 -5 -109v-459q-13 -17 -49 -45h-182q-27 15 -27 41q0 22 27.5 71t27.5 63v194q0 75 -5 100q-2 11 -21 43q-18 28 -18 60q0 27 36 38q8 2 10 3h206z
M454 708q0 -10 -22 -10q-30 0 -65 15q-30 14 -61 28.5t-31 23.5q0 13 30 13q13 0 90 -30q59 -24 59 -40z" />
    <glyph glyph-name="eacute" unicode="&#xe9;" horiz-adv-x="802" 
d="M735 398q-16 -17 -47.5 -28t-57.5 -11q-28 0 -44 24q-8 12 -21 50q-12 35 -23 48q-20 23 -73 43q-67 24 -81 32q16 61 51 61l261 -1l35 -35v-183zM481 359q0 -56 -3 -75q-10 -48 -44 -48q-24 0 -44.5 26t-20.5 51q0 27 27 66t52 39q33 0 33 -59zM724 49q0 -18 -34 -46
h-277q-16 0 -25.5 17t-9.5 34q0 4 1 8q14 25 34 31q11 3 46.5 3t60.5 28q16 17 37 61.5t33 59.5h134v-196zM298 616q-5 -29 -5 -109v-459q-13 -17 -49 -45h-182q-27 15 -27 41q0 22 27.5 71t27.5 63v194q0 75 -5 100q-2 11 -21 43q-18 28 -18 60q0 27 36 38q8 2 10 3h206z
M460 771q0 -9 -31.5 -23.5t-61.5 -28.5q-35 -15 -65 -15q-22 0 -22 10q0 16 59 40q77 30 90 30q31 0 31 -13z" />
    <glyph glyph-name="ecircumflex" unicode="&#xea;" horiz-adv-x="802" 
d="M735 398q-16 -17 -47.5 -28t-57.5 -11q-28 0 -44 24q-8 12 -21 50q-12 35 -23 48q-20 23 -73 43q-67 24 -81 32q16 61 51 61l261 -1l35 -35v-183zM481 359q0 -56 -3 -75q-10 -48 -44 -48q-24 0 -44.5 26t-20.5 51q0 27 27 66t52 39q33 0 33 -59zM724 49q0 -18 -34 -46
h-277q-16 0 -25.5 17t-9.5 34q0 4 1 8q14 25 34 31q11 3 46.5 3t60.5 28q16 17 37 61.5t33 59.5h134v-196zM298 616q-5 -29 -5 -109v-459q-13 -17 -49 -45h-182q-27 15 -27 41q0 22 27.5 71t27.5 63v194q0 75 -5 100q-2 11 -21 43q-18 28 -18 60q0 27 36 38q8 2 10 3h206z
M444 730q0 -18 -24 -18q-16 0 -42.5 19.5t-42.5 19.5q-18 0 -44 -20.5t-42 -20.5q-20 0 -20 16q0 9 19 24q47 38 86 38q25 0 65 -18q45 -20 45 -40z" />
    <glyph glyph-name="edieresis" unicode="&#xeb;" horiz-adv-x="802" 
d="M735 398q-16 -17 -47.5 -28t-57.5 -11q-28 0 -44 24q-8 12 -21 50q-12 35 -23 48q-20 23 -73 43q-67 24 -81 32q16 61 51 61l261 -1l35 -35v-183zM481 359q0 -56 -3 -75q-10 -48 -44 -48q-24 0 -44.5 26t-20.5 51q0 27 27 66t52 39q33 0 33 -59zM724 49q0 -18 -34 -46
h-277q-16 0 -25.5 17t-9.5 34q0 4 1 8q14 25 34 31q11 3 46.5 3t60.5 28q16 17 37 61.5t33 59.5h134v-196zM298 616q-5 -29 -5 -109v-459q-13 -17 -49 -45h-182q-27 15 -27 41q0 22 27.5 71t27.5 63v194q0 75 -5 100q-2 11 -21 43q-18 28 -18 60q0 27 36 38q8 2 10 3h206z
M508 739q0 -20 -16 -32t-36 -12q-21 0 -37 12t-16 32q0 19 16.5 31.5t36.5 12.5t36 -12.5t16 -31.5zM338 739q0 -20 -16 -32t-36 -12t-36.5 12t-16.5 32t16 32t37 12q20 0 36 -12.5t16 -31.5z" />
    <glyph glyph-name="igrave" unicode="&#xec;" horiz-adv-x="443" 
d="M382 46q0 -25 -36 -38q-13 -4 -15 -4h-225q-4 0 -10 2q-36 11 -36 34q0 16 21 49t21 40v315q0 9 -22 59q-24 54 -28 70q7 15 9 18q6 8 16 12q44 16 133 16h155q3 -10 3 -21q0 -36 -43 -119v-321q0 -12 28.5 -53.5t28.5 -58.5zM291 708q0 -10 -22 -10q-30 0 -65 15
q-30 14 -61 28.5t-31 23.5q0 13 30 13q13 0 90 -30q59 -24 59 -40z" />
    <glyph glyph-name="iacute" unicode="&#xed;" horiz-adv-x="443" 
d="M379 46q0 -25 -36 -38q-13 -4 -15 -4h-225q-4 0 -10 2q-36 11 -36 34q0 16 21 49t21 40v315q0 9 -22 59q-24 54 -28 70q7 15 9 18q6 8 16 12q44 16 133 16h155q3 -10 3 -21q0 -36 -43 -119v-321q0 -12 28.5 -53.5t28.5 -58.5zM316 771q0 -9 -31.5 -23.5t-61.5 -28.5
q-35 -15 -65 -15q-22 0 -22 10q0 16 59 40q77 30 90 30q31 0 31 -13z" />
    <glyph glyph-name="icircumflex" unicode="&#xee;" horiz-adv-x="443" 
d="M369 46q0 -25 -36 -38q-13 -4 -15 -4h-225q-4 0 -10 2q-36 11 -36 34q0 16 21 49t21 40v315q0 9 -22 59q-24 54 -28 70q7 15 9 18q6 8 16 12q44 16 133 16h155q3 -10 3 -21q0 -36 -43 -119v-321q0 -12 28.5 -53.5t28.5 -58.5zM295 733q0 -18 -24 -18q-16 0 -42.5 19.5
t-42.5 19.5q-18 0 -44 -20.5t-42 -20.5q-20 0 -20 16q0 9 19 24q47 38 86 38q25 0 65 -18q45 -20 45 -40z" />
    <glyph glyph-name="idieresis" unicode="&#xef;" horiz-adv-x="443" 
d="M376 46q0 -25 -36 -38q-13 -4 -15 -4h-225q-4 0 -10 2q-36 11 -36 34q0 16 21 49t21 40v315q0 9 -22 59q-24 54 -28 70q7 15 9 18q6 8 16 12q44 16 133 16h155q3 -10 3 -21q0 -36 -43 -119v-321q0 -12 28.5 -53.5t28.5 -58.5zM355 740q0 -20 -16 -32t-36 -12
q-21 0 -37 12t-16 32q0 19 16.5 31.5t36.5 12.5t36 -12.5t16 -31.5zM185 740q0 -20 -16 -32t-36 -12t-36.5 12t-16.5 32t16 32t37 12q20 0 36 -12.5t16 -31.5z" />
    <glyph glyph-name="ntilde" unicode="&#xf1;" horiz-adv-x="827" 
d="M782 593q0 -18 -24 -58.5t-24 -49.5q0 -97 -1.5 -106t-7.5 -49l-16 -116q-50 43 -83 115q-22 46 -47 137q-28 98 -43 136q16 12 45 21q33 10 51 14h97q3 0 16 -4q37 -13 37 -40zM666 49q-46 -45 -92 -45q-51 0 -108 60q-37 37 -94.5 124.5t-78.5 110.5q-9 -1 -36 -29
v-116q0 -7 22.5 -42.5t22.5 -54.5q0 -33 -48 -55h-106q-110 0 -110 33q0 11 24.5 51.5t24.5 60.5v304q0 19 -34.5 69t-34.5 65q0 31 77 31h200q25 0 66 -16q87 -126 175 -285q92 -166 130 -266zM526 749q0 -26 -35 -54q-20 -16 -47 -16q-9 0 -19 1q-17 2 -36.5 26.5
t-32.5 24.5q-17 0 -25 -24.5t-21 -24.5q-14 0 -27 11.5t-13 24.5q0 20 30 41t49 21q18 0 48 -24t43 -24q9 0 16 8q3 3 9 27q4 15 24 15q13 0 25 -10t12 -23z" />
    <glyph glyph-name="ograve" unicode="&#xf2;" horiz-adv-x="737" 
d="M714 295q0 -124 -61 -208q-69 -93 -189 -93q-11 0 -22 1q-20 9 -20 44q0 33 20 99q27 92 27 228l-5 20q-34 119 -33 193l1 14q26 5 51 5q111 0 176 -99q55 -86 55 -204zM334 51q0 -20 -18 -45q-13 -7 -31 -7q-73 0 -168 86q-103 93 -103 166v149q0 6 6 25q21 67 89 125
q82 68 160 68q33 0 58 -15q2 -13 2 -25q0 -41 -30 -117.5t-30 -113.5v-80q0 -1 4 -22q13 -67 37 -125t24 -69zM427 710q0 -10 -22 -10q-30 0 -65 15q-30 14 -61 28.5t-31 23.5q0 13 30 13q13 0 90 -30q59 -24 59 -40z" />
    <glyph glyph-name="oacute" unicode="&#xf3;" horiz-adv-x="737" 
d="M714 295q0 -124 -61 -208q-69 -93 -189 -93q-11 0 -22 1q-20 9 -20 44q0 33 20 99q27 92 27 228l-5 20q-34 119 -33 193l1 14q26 5 51 5q111 0 176 -99q55 -86 55 -204zM334 51q0 -20 -18 -45q-13 -7 -31 -7q-73 0 -168 86q-103 93 -103 166v149q0 6 6 25q21 67 89 125
q82 68 160 68q33 0 58 -15q2 -13 2 -25q0 -41 -30 -117.5t-30 -113.5v-80q0 -1 4 -22q13 -67 37 -125t24 -69zM435 773q0 -9 -31.5 -23.5t-61.5 -28.5q-35 -15 -65 -15q-22 0 -22 10q0 16 59 40q77 30 90 30q31 0 31 -13z" />
    <glyph glyph-name="ocircumflex" unicode="&#xf4;" horiz-adv-x="737" 
d="M714 295q0 -124 -61 -208q-69 -93 -189 -93q-11 0 -22 1q-20 9 -20 44q0 33 20 99q27 92 27 228l-5 20q-34 119 -33 193l1 14q26 5 51 5q111 0 176 -99q55 -86 55 -204zM334 51q0 -20 -18 -45q-13 -7 -31 -7q-73 0 -168 86q-103 93 -103 166v149q0 6 6 25q21 67 89 125
q82 68 160 68q33 0 58 -15q2 -13 2 -25q0 -41 -30 -117.5t-30 -113.5v-80q0 -1 4 -22q13 -67 37 -125t24 -69zM423 728q0 -18 -24 -18q-16 0 -42.5 19.5t-42.5 19.5q-18 0 -44 -20.5t-42 -20.5q-20 0 -20 16q0 9 19 24q47 38 86 38q25 0 65 -18q45 -20 45 -40z" />
    <glyph glyph-name="otilde" unicode="&#xf5;" horiz-adv-x="737" 
d="M714 295q0 -124 -61 -208q-69 -93 -189 -93q-11 0 -22 1q-20 9 -20 44q0 33 20 99q27 92 27 228l-5 20q-34 119 -33 193l1 14q26 5 51 5q111 0 176 -99q55 -86 55 -204zM334 51q0 -20 -18 -45q-13 -7 -31 -7q-73 0 -168 86q-103 93 -103 166v149q0 6 6 25q21 67 89 125
q82 68 160 68q33 0 58 -15q2 -13 2 -25q0 -41 -30 -117.5t-30 -113.5v-80q0 -1 4 -22q13 -67 37 -125t24 -69zM489 748q0 -26 -35 -54q-20 -16 -47 -16q-9 0 -19 1q-17 2 -36.5 26.5t-32.5 24.5q-17 0 -25 -24.5t-21 -24.5q-14 0 -27 11.5t-13 24.5q0 20 30 41t49 21
q18 0 48 -24t43 -24q9 0 16 8q3 3 9 27q4 15 24 15q13 0 25 -10t12 -23z" />
    <glyph glyph-name="odieresis" unicode="&#xf6;" horiz-adv-x="737" 
d="M714 295q0 -124 -61 -208q-69 -93 -189 -93q-11 0 -22 1q-20 9 -20 44q0 33 20 99q27 92 27 228l-5 20q-34 119 -33 193l1 14q26 5 51 5q111 0 176 -99q55 -86 55 -204zM334 51q0 -20 -18 -45q-13 -7 -31 -7q-73 0 -168 86q-103 93 -103 166v149q0 6 6 25q21 67 89 125
q82 68 160 68q33 0 58 -15q2 -13 2 -25q0 -41 -30 -117.5t-30 -113.5v-80q0 -1 4 -22q13 -67 37 -125t24 -69zM530 740q0 -20 -16 -32t-36 -12q-21 0 -37 12t-16 32q0 19 16.5 31.5t36.5 12.5t36 -12.5t16 -31.5zM360 740q0 -20 -16 -32t-36 -12t-36.5 12t-16.5 32t16 32
t37 12q20 0 36 -12.5t16 -31.5z" />
    <glyph glyph-name="oslash" unicode="&#xf8;" horiz-adv-x="737" 
d="M731 295q0 -124 -61 -208q-69 -93 -189 -93q-11 0 -22 1q-20 9 -20 44q0 33 20 99q27 92 27 228l-5 20q-34 119 -33 193l1 14q26 5 51 5q111 0 176 -99q55 -86 55 -204zM351 51q0 -20 -18 -45q-13 -7 -31 -7q-73 0 -168 86q-103 93 -103 166v149q0 6 6 25q21 67 89 125
q82 68 160 68q33 0 58 -15q2 -13 2 -25q0 -41 -30 -117.5t-30 -113.5v-80q0 -1 4 -22q13 -67 37 -125t24 -69zM637 622q0 -35 -47 -91q-14 -18 -47 -57q-9 -9 -23 -27q-22 -34 -82 -152q-45 -90 -91 -150q-19 -25 -46 -73q-33 -55 -45 -74q-22 -33 -53 -57q-37 -29 -70 -29
q-30 0 -30 26q0 24 21 56q13 18 38 53q28 42 79 136q48 90 79 134q49 66 138 202q74 128 130 128q12 0 30.5 -8t18.5 -17z" />
    <glyph glyph-name="ugrave" unicode="&#xf9;" horiz-adv-x="750" 
d="M700 564q0 -27 -20.5 -72.5t-20.5 -55.5v-255q0 -51 -71 -113t-128 -62q-12 0 -21 4q-23 10 -23 59q0 13 3 18q20 27 51 70t31 99v135q0 43 -38.5 108t-38.5 72q0 38 158 38h107q11 -21 11 -45zM330 58q0 -36 -34 -60h-10q-48 0 -124.5 47.5t-98.5 102.5q-7 16 -7 21v232
q0 50 -23 88.5t-23 59.5q0 27 16 70h237q3 0 15 -3q50 -11 50 -43q0 -21 -30 -68t-30 -59v-235q0 -15 31 -70.5t31 -82.5zM425 714q0 -10 -22 -10q-30 0 -65 15q-30 14 -61 28.5t-31 23.5q0 13 30 13q13 0 90 -30q59 -24 59 -40z" />
    <glyph glyph-name="uacute" unicode="&#xfa;" horiz-adv-x="750" 
d="M700 564q0 -27 -20.5 -72.5t-20.5 -55.5v-255q0 -51 -71 -113t-128 -62q-12 0 -21 4q-23 10 -23 59q0 13 3 18q20 27 51 70t31 99v135q0 43 -38.5 108t-38.5 72q0 38 158 38h107q11 -21 11 -45zM330 58q0 -36 -34 -60h-10q-48 0 -124.5 47.5t-98.5 102.5q-7 16 -7 21v232
q0 50 -23 88.5t-23 59.5q0 27 16 70h237q3 0 15 -3q50 -11 50 -43q0 -21 -30 -68t-30 -59v-235q0 -15 31 -70.5t31 -82.5zM447 768q0 -9 -31.5 -23.5t-61.5 -28.5q-35 -15 -65 -15q-22 0 -22 10q0 16 59 40q77 30 90 30q31 0 31 -13z" />
    <glyph glyph-name="ucircumflex" unicode="&#xfb;" horiz-adv-x="750" 
d="M700 564q0 -27 -20.5 -72.5t-20.5 -55.5v-255q0 -51 -71 -113t-128 -62q-12 0 -21 4q-23 10 -23 59q0 13 3 18q20 27 51 70t31 99v135q0 43 -38.5 108t-38.5 72q0 38 158 38h107q11 -21 11 -45zM330 58q0 -36 -34 -60h-10q-48 0 -124.5 47.5t-98.5 102.5q-7 16 -7 21v232
q0 50 -23 88.5t-23 59.5q0 27 16 70h237q3 0 15 -3q50 -11 50 -43q0 -21 -30 -68t-30 -59v-235q0 -15 31 -70.5t31 -82.5zM463 728q0 -18 -24 -18q-16 0 -42.5 19.5t-42.5 19.5q-18 0 -44 -20.5t-42 -20.5q-20 0 -20 16q0 9 19 24q47 38 86 38q25 0 65 -18q45 -20 45 -40z
" />
    <glyph glyph-name="udieresis" unicode="&#xfc;" horiz-adv-x="750" 
d="M700 564q0 -27 -20.5 -72.5t-20.5 -55.5v-255q0 -51 -71 -113t-128 -62q-12 0 -21 4q-23 10 -23 59q0 13 3 18q20 27 51 70t31 99v135q0 43 -38.5 108t-38.5 72q0 38 158 38h107q11 -21 11 -45zM330 58q0 -36 -34 -60h-10q-48 0 -124.5 47.5t-98.5 102.5q-7 16 -7 21v232
q0 50 -23 88.5t-23 59.5q0 27 16 70h237q3 0 15 -3q50 -11 50 -43q0 -21 -30 -68t-30 -59v-235q0 -15 31 -70.5t31 -82.5zM495 737q0 -20 -16 -32t-36 -12q-21 0 -37 12t-16 32q0 19 16.5 31.5t36.5 12.5t36 -12.5t16 -31.5zM325 737q0 -20 -16 -32t-36 -12t-36.5 12
t-16.5 32t16 32t37 12q20 0 36 -12.5t16 -31.5z" />
    <glyph glyph-name="ydieresis" unicode="&#xff;" horiz-adv-x="739" 
d="M709 600q0 -70 -180 -193q-28 19 -49 72q-18 47 -18 86q0 77 65 77q6 0 17.5 -2.5t16.5 -2.5h128q20 -14 20 -37zM512 60q0 -12 -4 -24q-12 -11 -49 -20q-27 -7 -56 -14h-85q-14 0 -42 -7.5t-43 -7.5q-29 0 -46 29v3q0 12 17 38q23 33 26 39q17 38 17 85q0 78 -58 142
q-43 48 -62 68q-42 44 -66 63q-23 15 -63 47q-14 14 -14 35q0 39 45 70h202q11 0 33.5 1.5t33.5 1.5q28 0 50 -9q5 -9 5 -31q0 -13 -2 -38t-2 -38q0 -40 15 -64q7 -14 42 -53q45 -49 50 -71q4 -17 4 -41q0 -12 -2 -36t-2 -36q0 -63 52 -107q4 -13 4 -25zM495 725
q0 -20 -16 -32t-36 -12q-21 0 -37 12t-16 32q0 19 16.5 31.5t36.5 12.5t36 -12.5t16 -31.5zM325 725q0 -20 -16 -32t-36 -12t-36.5 12t-16.5 32t16 32t37 12q20 0 36 -12.5t16 -31.5z" />
    <glyph glyph-name="OE" unicode="&#x152;" horiz-adv-x="1136" 
d="M1088 398q-37 -39 -105 -39q-28 0 -44 24q-9 13 -21 49t-23 49q-20 23 -72 43q-68 24 -82 32q16 61 50 61l262 -1l35 -35v-183zM834 334q0 -98 -47 -98q-22 0 -44 26q-31 36 -31 51q0 14 36 64q29 41 53 41t31 -33q2 -12 2 -51zM1077 49q0 -18 -34 -46h-277
q-16 0 -25.5 17t-9.5 34v8q7 11 27 22t35.5 12.5t34 3.5t29.5 10q25 17 48 63q27 58 38 72h134v-196zM651 616q-12 -65 -12 -194q0 -62 3.5 -187.5t3.5 -186.5q-14 -18 -49 -45h-64q3 0 -19 -4.5t-50 -4.5q-11 0 -22 1q-20 9 -20 44q0 33 20 99q28 92 28 228q0 -7 -17 63
q-21 86 -21 143v21l14 3q17 20 39 20h166zM335 51q0 -20 -19 -45q-13 -7 -31 -7q-73 0 -168 86q-103 94 -103 166v149q0 5 6 25q22 73 98.5 133t150.5 60q33 0 59 -15q1 -13 1 -25q0 -41 -30 -116t-30 -115v-80q0 -3 4 -22q15 -71 37 -124q25 -59 25 -70z" />
    <glyph glyph-name="oe" unicode="&#x153;" horiz-adv-x="1136" 
d="M1088 398q-37 -39 -105 -39q-28 0 -44 24q-9 13 -21 49t-23 49q-20 23 -72 43q-68 24 -82 32q16 61 50 61l262 -1l35 -35v-183zM834 334q0 -98 -47 -98q-22 0 -44 26q-31 36 -31 51q0 14 36 64q29 41 53 41t31 -33q2 -12 2 -51zM1077 49q0 -18 -34 -46h-277
q-16 0 -25.5 17t-9.5 34v8q7 11 27 22t35.5 12.5t34 3.5t29.5 10q25 17 48 63q27 58 38 72h134v-196zM651 616q-12 -65 -12 -194q0 -62 3.5 -187.5t3.5 -186.5q-14 -18 -49 -45h-64q3 0 -19 -4.5t-50 -4.5q-11 0 -22 1q-20 9 -20 44q0 33 20 99q28 92 28 228q0 -7 -17 63
q-21 86 -21 143v21l14 3q17 20 39 20h166zM335 51q0 -20 -19 -45q-13 -7 -31 -7q-73 0 -168 86q-103 94 -103 166v149q0 5 6 25q22 73 98.5 133t150.5 60q33 0 59 -15q1 -13 1 -25q0 -41 -30 -116t-30 -115v-80q0 -3 4 -22q15 -71 37 -124q25 -59 25 -70z" />
    <glyph glyph-name="Ydieresis" unicode="&#x178;" horiz-adv-x="739" 
d="M709 600q0 -70 -180 -193q-28 19 -49 72q-18 47 -18 86q0 77 65 77q6 0 17.5 -2.5t16.5 -2.5h128q20 -14 20 -37zM512 60q0 -12 -4 -24q-12 -11 -49 -20q-27 -7 -56 -14h-85q-14 0 -42 -7.5t-43 -7.5q-29 0 -46 29v3q0 12 17 38q23 33 26 39q17 38 17 85q0 78 -58 142
q-43 48 -62 68q-42 44 -66 63q-23 15 -63 47q-14 14 -14 35q0 39 45 70h202q11 0 33.5 1.5t33.5 1.5q28 0 50 -9q5 -9 5 -31q0 -13 -2 -38t-2 -38q0 -40 15 -64q7 -14 42 -53q45 -49 50 -71q4 -17 4 -41q0 -12 -2 -36t-2 -36q0 -63 52 -107q4 -13 4 -25zM495 725
q0 -20 -16 -32t-36 -12q-21 0 -37 12t-16 32q0 19 16.5 31.5t36.5 12.5t36 -12.5t16 -31.5zM325 725q0 -20 -16 -32t-36 -12t-36.5 12t-16.5 32t16 32t37 12q20 0 36 -12.5t16 -31.5z" />
    <glyph glyph-name="circumflex" unicode="&#x2c6;" horiz-adv-x="363" 
d="M286 585q0 -18 -24 -18q-16 0 -42.5 19.5t-42.5 19.5q-18 0 -44 -20.5t-42 -20.5q-20 0 -20 16q0 9 19 24q47 38 86 38q25 0 65 -18q45 -20 45 -40z" />
    <glyph glyph-name="ring" unicode="&#x2da;" horiz-adv-x="294" 
d="M303 574q0 -38 -27.5 -62.5t-65.5 -24.5t-66 25t-28 62t28 61.5t66 24.5q37 0 65 -24.5t28 -61.5zM269 574q0 23 -18 39t-41 16q-25 0 -42.5 -15.5t-17.5 -39.5t17.5 -39.5t42.5 -15.5q23 0 41 15.5t18 39.5z" />
    <glyph glyph-name="tilde" unicode="&#x2dc;" horiz-adv-x="444" 
d="M365 583q0 -26 -35 -54q-20 -16 -47 -16q-9 0 -19 1q-17 2 -36.5 26.5t-32.5 24.5q-17 0 -25 -24.5t-21 -24.5q-14 0 -27 11.5t-13 24.5q0 20 30 41t49 21q18 0 48 -24t43 -24q9 0 16 8q3 3 9 27q4 15 24 15q13 0 25 -10t12 -23z" />
    <glyph glyph-name="endash" unicode="&#x2013;" horiz-adv-x="664" 
d="M646 212q0 -28 -29 -28h-498q-29 0 -29 28v21q0 30 29 30h498q29 0 29 -30v-21z" />
    <glyph glyph-name="emdash" unicode="&#x2014;" horiz-adv-x="503" 
d="M483 184q0 -29 -28 -29h-379q-29 0 -29 29v23q0 30 29 30h379q28 0 28 -30v-23z" />
    <glyph glyph-name="quoteleft" unicode="&#x2018;" horiz-adv-x="250" 
d="M189 535q0 -61 -49 -61t-75 46q-22 38 -22 92q0 89 57 89q28 0 60 -69q29 -63 29 -97z" />
    <glyph glyph-name="quoteright" unicode="&#x2019;" horiz-adv-x="249" 
d="M188 612q0 -54 -21 -92q-26 -46 -76 -46q-49 0 -49 61q0 34 29 97q32 69 60 69q57 0 57 -89z" />
    <glyph glyph-name="quotedblleft" unicode="&#x201c;" horiz-adv-x="417" 
d="M360 522q0 -60 -49 -60t-75 46q-22 37 -22 91q0 89 57 89q28 0 60 -69q29 -63 29 -97zM184 522q0 -60 -48 -60q-51 0 -77 45q-20 37 -20 92q0 89 56 89q29 0 60 -69q29 -62 29 -97z" />
    <glyph glyph-name="quotedblright" unicode="&#x201d;" horiz-adv-x="422" 
d="M363 599q0 -53 -22 -91q-26 -46 -75 -46t-49 60q0 34 29 97q32 69 60 69q57 0 57 -89zM177 599q0 -54 -20 -91q-26 -46 -76 -46q-49 0 -49 60q0 35 29 97q31 69 60 69q56 0 56 -89z" />
    <glyph glyph-name="bullet" unicode="&#x2022;" horiz-adv-x="381" 
d="M376 220q0 -57 -50 -94q-45 -33 -104 -33t-104 33q-50 36 -50 93q0 59 49 95q44 32 105 32t105 -32q49 -36 49 -94z" />
    <glyph glyph-name="numbersign" unicode="#" horiz-adv-x="494" 
d="M178 201h111l33 155h-113zM337 202h93v-63h-104l-30 -139h-47l28 139h-111l-29 -139h-48l28 139h-89v63h102l30 153h-95v63h109l25 136h50l-26 -136h110l28 136h48l-27 -136h84v-63h-97z" />
    <glyph glyph-name="at" unicode="@" horiz-adv-x="614" 
d="M306 645q118 0 188 -58.5t81 -183.5q0 -8 -5 -14.5t-14 -6.5h-60q-7 0 -12.5 5t-6.5 12q-8 67 -48.5 109.5t-122.5 42.5q-35 0 -66 -12t-55 -35.5t-38.5 -59t-17.5 -82.5q-1 -7 -6 -12.5t-13 -5.5h-58q-8 0 -13.5 5t-5.5 13q0 67 24 119.5t63 89t87.5 55.5t98.5 19z
M402 443q8 0 13.5 -5.5t5.5 -13.5v-126q0 -24 19 -24q7 0 13 6t11 12.5t10.5 12.5t12.5 6h61q8 0 13.5 -5t5.5 -13q0 -20 -10 -39t-27.5 -34t-41 -24t-49.5 -9q-56 0 -83 35l-7 -3q-5 -3 -10 -3q-8 0 -13 5.5t-5 14.5v49q0 8 4.5 11.5t10.5 9.5v45q-5 5 -10 8t-5 11v47
q0 8 5 13.5t13 5.5q5 0 7 -1q8 8 14 8h42zM277 25q-52 7 -93 28t-70.5 53t-48 74t-26.5 90q0 21 18 21h58q16 0 19 -15q13 -71 53.5 -109t100.5 -47q8 -2 12 -7.5t4 -13.5l-5 -57zM268 325q0 -11 3 -16t7 -9t7 -7.5t3 -9.5v-53q0 -8 -5 -13.5t-12 -5.5q-19 0 -35 10
t-27.5 26t-18 36.5t-6.5 41.5t5.5 42t16.5 37.5t27 27t37 10.5q8 0 13 -5.5t5 -13.5v-53q0 -6 -3 -10t-7 -8.5t-7 -10.5t-3 -16z" />
    <glyph glyph-name="guilsinglleft" unicode="&#x2039;" horiz-adv-x="230" 
d="M95 302l102 -48v-60l-156 77v59l156 81v-62z" />
    <glyph glyph-name="trademark" unicode="&#x2122;" horiz-adv-x="561" 
d="M173 484v-223h-59v223h-71v54h199v-54h-69zM448 414l-60 -154l-66 160v-158h-55v277h67l53 -143l52 143h65v-277h-56v152z" />
    <glyph glyph-name="guilsinglright" unicode="&#x203a;" horiz-adv-x="230" 
d="M143 304l-102 47v60l156 -77v-59l-156 -81v62z" />
    <glyph glyph-name="guillemotleft" unicode="&#xab;" horiz-adv-x="374" 
d="M95 302l102 -48v-60l-156 77v59l156 81v-62zM243 302l102 -48v-60l-156 77v59l156 81v-62z" />
    <glyph glyph-name="guillemotright" unicode="&#xbb;" horiz-adv-x="386" 
d="M302 304l-102 47v60l156 -77v-59l-156 -81v62zM154 304l-102 47v60l156 -77v-59l-156 -81v62z" />
    <glyph glyph-name="ampersand" unicode="&#x26;" horiz-adv-x="855" 
d="M838 345q0 -22 -18 -44t-39 -22q-38 0 -99 18q-74 22 -74 48q0 25 55 58q51 31 80 31q26 0 60.5 -31.5t34.5 -57.5zM567 527q0 -69 -56 -76q-47 23 -47 123q0 55 38 55q30 0 49 -37q16 -32 16 -65zM840 149q-5 -42 -47.5 -89t-84.5 -47h-105q-3 0 -31 11
q-121 47 -237 171q-139 148 -139 270q0 110 124 157q13 -110 97 -229q76 -106 177 -179q108 -77 190 -77q31 0 56 12zM344 16q-24 -24 -49 -24h-126q-23 0 -48.5 14t-40.5 33q-27 35 -27 86q0 47 22 89q24 46 63 66q8 -2 24 -7q20 -9 30 -30q24 -49 63 -95q39 -42 77 -84
q12 -13 12 -48z" />
    <glyph glyph-name="exclam" unicode="!" horiz-adv-x="272" 
d="M225 535q0 -42 -14 -101q-12 -50 -24 -99q-4 -31 -15 -92q-13 -66 -38 -66q-24 0 -45 62q-4 13 -21 87q-3 10 -27 83q-18 51 -18 86q0 49 24 85q28 41 74 41q44 0 72 -21q32 -23 32 -65zM203 60q0 -72 -65 -72q-79 0 -79 70q0 23 27.5 47.5t51.5 24.5q26 0 45.5 -22
t19.5 -48z" />
    <glyph glyph-name="quotedbl" unicode="&#x22;" horiz-adv-x="407" 
d="M347 602q0 -47 -22 -88q-25 -45 -67 -58q-2 8 -4 46q-2 31 -11 43l-26 34q-18 24 -18 34q0 21 16 50q17 33 35 35q7 1 15 1q41 0 63 -29q19 -26 19 -68zM171 605q0 -47 -22 -88q-25 -45 -67 -59q-2 6 -5 47q-2 31 -10 43q-13 17 -26 33q-18 25 -18 34q0 21 16.5 52.5
t34.5 33.5q6 1 15 1q40 0 61 -27.5t21 -69.5z" />
    <glyph glyph-name="Eth" unicode="&#xd0;" horiz-adv-x="824" 
d="M772 323q0 -126 -64 -215q-72 -99 -194 -99q-47 0 -100 16q-7 18 -7 34q0 26 29 49q40 33 45 40q22 33 42 110l4 16v82q0 8 -9 50.5t-12 50.5q-5 16 -25 31q-29 21 -32 24q-42 43 -42 55t18 34q55 17 105 17q116 0 182 -92q60 -82 60 -203zM325 91q0 -23 -18 -54
q-20 -34 -41 -34h-159q-4 3 -31 15q-17 7 -17 30q0 25 27.5 80.5t27.5 82.5v251q0 8 -15 28.5t-18 28.5q-5 15 -9 97h218l35 -35v-490zM411 313q0 -44 -187 -44q-27 0 -79 -1t-78 -1q-41 0 -41 38q0 82 139 82q22 0 65.5 -3t65.5 -3q115 0 115 -68z" />
    <glyph glyph-name="Yacute" unicode="&#xdd;" horiz-adv-x="670" 
d="M710 600q0 -70 -180 -193q-28 19 -49 72q-18 47 -18 86q0 77 65 77q6 0 17.5 -2.5t16.5 -2.5h128q20 -14 20 -37zM513 60q0 -12 -4 -24q-12 -11 -49 -20q-27 -7 -56 -14h-85q-14 0 -42 -7.5t-43 -7.5q-29 0 -46 29v3q0 12 17 38q23 33 26 39q17 38 17 85q0 78 -58 142
q-43 48 -62 68q-42 44 -66 63q-23 15 -63 47q-14 14 -14 35q0 39 45 70h202q11 0 33.5 1.5t33.5 1.5q28 0 50 -9q5 -9 5 -31q0 -13 -2 -38t-2 -38q0 -40 15 -64q7 -14 42 -53q45 -49 50 -71q4 -17 4 -41q0 -12 -2 -36t-2 -36q0 -63 52 -107q4 -13 4 -25zM451 772
q0 -9 -31.5 -23.5t-61.5 -28.5q-35 -15 -65 -15q-22 0 -22 10q0 16 59 40q77 30 90 30q31 0 31 -13z" />
    <glyph glyph-name="yacute" unicode="&#xfd;" horiz-adv-x="670" 
d="M710 600q0 -70 -180 -193q-28 19 -49 72q-18 47 -18 86q0 77 65 77q6 0 17.5 -2.5t16.5 -2.5h128q20 -14 20 -37zM513 60q0 -12 -4 -24q-12 -11 -49 -20q-27 -7 -56 -14h-85q-14 0 -42 -7.5t-43 -7.5q-29 0 -46 29v3q0 12 17 38q23 33 26 39q17 38 17 85q0 78 -58 142
q-43 48 -62 68q-42 44 -66 63q-23 15 -63 47q-14 14 -14 35q0 39 45 70h202q11 0 33.5 1.5t33.5 1.5q28 0 50 -9q5 -9 5 -31q0 -13 -2 -38t-2 -38q0 -40 15 -64q7 -14 42 -53q45 -49 50 -71q4 -17 4 -41q0 -12 -2 -36t-2 -36q0 -63 52 -107q4 -13 4 -25zM451 772
q0 -9 -31.5 -23.5t-61.5 -28.5q-35 -15 -65 -15q-22 0 -22 10q0 16 59 40q77 30 90 30q31 0 31 -13z" />
    <glyph glyph-name="Euro" unicode="&#x20ac;" horiz-adv-x="769" 
d="M544 353q0 -28 -190 -32v-30h31q7 0 20 0.5t27.5 1t28 1t19.5 0.5q56 0 56 -27q0 -10 -12 -18.5t-32 -14.5t-45.5 -9.5t-53.5 -3.5h-33q7 -42 10 -64.5t3 -27.5v-120q-13 -10 -34 -10q-30 0 -70 22t-76.5 55t-63.5 72t-31 73h-26q-23 0 -37 17.5t-14 34.5q0 15 76 19v27
h-22q-55 0 -55 29q0 42 88 55q17 46 48.5 85.5t68.5 67.5t75.5 44t70.5 16q8 0 15 -1.5t11.5 -8.5t7 -20t2.5 -35t-5.5 -38.5t-12.5 -30t-14 -24t-10 -20.5q-2 -5 -3.5 -14t-3.5 -20h29q157 0 157 -51zM691 214q0 -41 -15 -78t-40 -65.5t-57.5 -45.5t-67.5 -17q-18 0 -31 12
t-13 49q0 9 5.5 24t14 32t17.5 33.5t15 29.5q28 56 63.5 78.5t58.5 22.5q50 0 50 -75zM722 445q0 -18 -7.5 -32t-18 -24t-22 -15.5t-20.5 -5.5q-24 0 -50.5 20.5t-49 51.5t-37 66t-14.5 65q0 8 19 15t44.5 12.5t51.5 8.5t40 3q28 0 46 -13t18 -35v-117z" />
    <glyph glyph-name="ellipsis" horiz-adv-x="1617" 
d="M194 64q0 -31 -22.5 -52t-53.5 -21t-53.5 21t-22.5 52t22.5 52t53.5 21t53.5 -21t22.5 -52zM873 64q0 -31 -22.5 -52t-53.5 -21t-53.5 21t-22.5 52t22.5 52t53.5 21t53.5 -21t22.5 -52zM1552 64q0 -31 -22.5 -52t-53.5 -21t-53.5 21t-22.5 52t22.5 52t53.5 21t53.5 -21
t22.5 -52z" />
  </font>
</defs>
</svg>
